<?xml version="1.0" encoding="utf-8"?>
<!-- Generator: Adobe Illustrator 22.0.0, SVG Export Plug-In . SVG Version: 6.00 Build 0)  -->
<svg version="1.1" id="Ballet_x5F_Group" xmlns="http://www.w3.org/2000/svg" xmlns:xlink="http://www.w3.org/1999/xlink" x="0px"
	 y="0px" viewBox="0 0 105.8 121.7" style="enable-background:new 0 0 105.8 121.7;" xml:space="preserve">
<style type="text/css">
	.st0{fill:#036EB8;}
</style>
<g id="ballet">
	<path class="st0" d="M51.7,111.7c2.9,0.2,8.7,0.9,12.5,1.6c5-3,9.9-6.7,14.6-10.9c-4.4,1.3-8.8,2.4-13.3,3.3
		c-2.7,0.7-5.5,1.2-8.3,1.7c-1.4,0.3-2.8,0.4-4.2,0.6l-2.1,0.3c-0.7,0.1-1.4,0.1-2.1,0.2c-2.6,0.3-5.2,0.5-7.8,0.6
		c0.1,0.1,0.1,0.3,0.2,0.4l0.2,0.3l0.1,0.2c0.3,0.5,0.4,1,0.5,1.5C45.3,111.5,48.5,111.5,51.7,111.7z"/>
	<path class="st0" d="M11.8,5.4l0,0.1c1.2,3.6,2.7,7.2,4.4,10.6c1.7,3.4,3.6,6.8,5.7,10.1c2.1,3.3,4.2,6.5,6.5,9.6
		c1.2,1.6,2.3,3.1,3.5,4.6c1.1,1.5,2.4,3,3.5,4.2c0.1,0,0.3-0.1,0.4-0.1c4.2-1,8.2-1.1,12.1-1.1c3.9,0,7.7,0.2,11.4,0.6
		c3.8,0.3,7.5,0.7,11.1,1.2c3.7,0.5,7.3,1.1,11,1.8c3.6,0.7,7.3,1.3,10.9,2.1l0,0c1.6,0.4,2.7,2,2.3,3.6c-0.4,1.6-1.9,2.6-3.5,2.3
		c-7-1.2-14.3-1.9-21.4-2.3c-3.6-0.2-7.2-0.3-10.7-0.2c-3.5,0.1-7.1,0.4-10.5,0.9c-3.4,0.5-6.7,1.3-9.5,2.4c-2.8,1-5,2.7-5.2,3.6
		c-0.1,0.1-0.1,0.2-0.1,0.3c0,0.1,0,0.1-0.1,0.2l-0.1,0.4c-0.1,0.5-0.2,1-0.2,1.5c-0.1,0.9,0,1.8,0.2,2.7c0.1,0.5,0.3,1,0.5,1.5
		c0.2,0.5,0.5,1.1,0.8,1.6c0.3,0.6,0.6,1.1,1,1.7l0.6,0.9c0.1,0.1,0.2,0.3,0.3,0.4c0.1,0.1,0.2,0.3,0.2,0.4c2.1,1.2,2.8,4,1.6,6.1
		c-0.2,0.3-0.4,0.6-0.6,0.8c-0.1,0.7-0.3,1.5-0.4,2.2c-0.2,1.5-0.4,3-0.5,4.5c-0.1,1.5-0.2,3-0.2,4.5c-0.1,1.5,0,3,0.1,4.4
		c0.2,2.9,0.7,5.9,1.4,8.7c0.2,0.7,0.4,1.4,0.6,2.1c0.2,0.7,0.5,1.4,0.7,2c0.1,0.3,0.2,0.6,0.4,0.9c2.8-0.1,5.7-0.4,8.5-0.8
		c5.5-0.7,10.9-1.7,16.2-3.2c1.3-0.4,2.7-0.7,4-1.2l3.9-1.3c1.3-0.4,2.6-1,3.8-1.5l8.9-3.6c12.1-13.3,20.8-29.9,20.3-45.5
		C105,24.3,59.1,0.3,32,0c-8.9-0.1-15.5,1.8-20.4,5.2C11.7,5.3,11.8,5.4,11.8,5.4z M46.4,84.7c-3.3,0-5.9-2.9-5.9-6.5s3-6.9,6.4-6.9
		s5.9,2.7,5.9,6.2S49.7,84.7,46.4,84.7z"/>
	<path class="st0" d="M34,111.9c-0.1-0.1-0.1-0.2-0.2-0.4c-0.4-0.7-0.7-1.5-1-2.2c-0.3,0-0.6,0-0.9,0c-2.8,0-5.6-0.1-8.4-0.3
		c-1.9-0.1-3.7-0.3-5.6-0.5c1.2,1.7,2.4,3.2,3.7,4.6c3.1-0.4,6.3-0.7,9.4-1C32.1,112.1,33.1,112,34,111.9z"/>
	<path class="st0" d="M23.8,107c2.8,0.2,5.5,0.4,8.3,0.4c0,0,0.1,0,0.1,0c-0.1-0.2-0.2-0.5-0.2-0.7c-0.3-0.8-0.5-1.6-0.7-2.5
		c-0.9-3.3-1.4-6.7-1.7-10.1c-0.1-1.7-0.2-3.4-0.1-5.1c0-1.7,0.1-3.4,0.2-5c0.1-1.7,0.4-3.3,0.6-5c0.1-0.4,0.1-0.7,0.2-1.1
		c-0.4-0.2-0.9-0.4-1.3-0.7c-1-0.6-2-1.3-2.9-2.1c-0.9-0.8-1.8-1.7-2.5-2.8c-0.8-1-1.4-2.2-2-3.4c-1.1-2.5-1.5-5.4-1.4-8.2
		c0.1-1.4,0.4-2.7,0.7-4l0.3-0.9c0.1-0.4,0.3-0.8,0.4-1.1c0.3-0.7,0.7-1.5,1.1-2.2c0.5-0.8,1.1-1.5,1.7-2.1
		c-0.2-0.3-0.3-0.5-0.5-0.8c-0.6-0.9-1.1-1.8-1.7-2.7c-1.1-1.8-2.1-3.6-3.1-5.4c-2-3.6-3.9-7.3-5.7-11c-1.8-3.7-3.3-7.6-4.7-11.5
		c-1-2.8-1.8-5.7-2.5-8.6C-0.4,20.2-1,35.5,1,54.7c2.1,19.4,7.2,38.4,15.2,51.2C18.7,106.4,21.2,106.7,23.8,107z"/>
	<path class="st0" d="M51.5,114.3c-3.3-0.3-6.6-0.4-10-0.3c-0.3,0.5-0.7,0.9-1.2,1.2c-1.7,1-3.9,0.5-5-1.1c-0.1-0.1-0.1-0.2-0.2-0.3
		c-1.1,0-2.2,0-3.3,0.1c-2.5,0.2-5.2,0.9-7.8,1.5c4.3,3.9,9.2,6.1,14.7,6.2c6.5,0.1,13.8-2.1,21.1-5.9
		C57.1,115.1,54.3,114.6,51.5,114.3z"/>
</g>
</svg>
