<svg id="ballet_group" xmlns="http://www.w3.org/2000/svg" width="36.26mm" height="41.7mm" viewBox="0 0 102.79 118.21">
  <defs>
    <style>
      #ballet_group:hover {cursor: pointer; }
      #ballet {cursor: pointer; }
      #ballet:hover .cls-1 {fill: #036eb8; !important; }
      .cls-1 {
        fill: #231815;
      }
    </style>
  </defs>
  <title>ballet</title>
  <g id="ballet">
    <path class="cls-1" d="M50.25,108.56c2.85.19,8.43.9,12.12,1.56A90.29,90.29,0,0,0,76.53,99.49c-4.26,1.29-8.58,2.31-12.93,3.25-2.66.65-5.36,1.12-8,1.63-1.35.25-2.71.39-4.06.6l-2,.28c-.68.09-1.36.14-2,.21-2.52.29-5,.49-7.56.63.07.12.14.27.21.37l.17.29.13.22a3.44,3.44,0,0,1,.49,1.42C44,108.36,47.12,108.34,50.25,108.56Z"/>
    <path class="cls-1" d="M11.44,5.28l0,.1a86.2,86.2,0,0,0,4.28,10.31c1.69,3.35,3.51,6.63,5.51,9.82s4.13,6.31,6.36,9.35c1.12,1.51,2.26,3,3.43,4.48s2.32,2.88,3.42,4.13l.4-.1a49.77,49.77,0,0,1,11.77-1c3.78,0,7.46.21,11.11.57s7.25.66,10.83,1.15,7.14,1.06,10.67,1.71,7,1.27,10.62,2.06h0a3,3,0,0,1-1.15,5.79,179,179,0,0,0-20.82-2.24c-3.48-.18-7-.29-10.41-.24A94,94,0,0,0,47.33,52a47.67,47.67,0,0,0-9.26,2.33c-2.74,1-4.82,2.65-5.08,3.51a1.35,1.35,0,0,0-.14.3.58.58,0,0,1-.05.16l-.09.38a7.1,7.1,0,0,0-.22,1.44,8.38,8.38,0,0,0,.2,2.63c.11.46.28.93.46,1.45s.47,1,.74,1.59.63,1.12,1,1.69l.56.86c.1.14.2.29.28.43s.23.31.18.35a4.35,4.35,0,0,1,1.54,5.95,5,5,0,0,1-.58.77c-.14.71-.28,1.42-.4,2.13-.16,1.45-.43,2.89-.52,4.33s-.23,2.89-.2,4.34,0,2.88.11,4.31a46.16,46.16,0,0,0,1.4,8.41c.19.67.36,1.36.6,2s.45,1.32.72,2c.11.3.24.59.37.88,2.75-.14,5.51-.38,8.25-.74A109.49,109.49,0,0,0,63,100.32c1.29-.38,2.6-.68,3.86-1.13l3.8-1.29c1.28-.41,2.51-.94,3.74-1.45L83,93c11.78-12.92,20.19-29.08,19.76-44.2C102.05,23.64,57.42.28,31.13,0c-8.61-.09-15,1.7-19.78,5.09A1.11,1.11,0,0,1,11.44,5.28Zm33.6,77A6,6,0,0,1,39.26,76c0-3.49,3-6.68,6.2-6.68a5.75,5.75,0,0,1,5.7,6.07C51.16,78.87,48.28,82.26,45,82.26Z"/>
    <path class="cls-1" d="M33.08,108.76l-.18-.35c-.34-.71-.67-1.42-.95-2.13H31.1c-2.73,0-5.46-.12-8.19-.29-1.81-.12-3.6-.28-5.41-.49a42.21,42.21,0,0,0,3.55,4.43c3.06-.41,6.09-.7,9.14-1C31.15,108.9,32.11,108.82,33.08,108.76Z"/>
    <path class="cls-1" d="M23.08,103.94c2.67.22,5.35.38,8,.42h.09c-.08-.23-.16-.46-.23-.69-.29-.79-.5-1.6-.73-2.4a53.91,53.91,0,0,1-1.66-9.78c-.08-1.64-.19-3.29-.14-4.92s.11-3.26.23-4.89.38-3.22.57-4.84c.06-.35.13-.7.19-1.06a10.81,10.81,0,0,1-1.22-.63,16.67,16.67,0,0,1-2.81-2.05A15.82,15.82,0,0,1,23,70.41,15.42,15.42,0,0,1,21,67.07a17,17,0,0,1-1.31-7.93,18.47,18.47,0,0,1,.72-3.85l.27-.91c.12-.34.28-.74.43-1.1a13.09,13.09,0,0,1,1.1-2.1,14.58,14.58,0,0,1,1.62-2.06c-.17-.25-.33-.5-.49-.75-.55-.86-1.08-1.71-1.61-2.58-1.05-1.72-2.06-3.46-3.05-5.21q-3-5.25-5.51-10.72C11.49,26.22,10,22.48,8.61,18.68,7.66,16,6.84,13.17,6.14,10.36-.35,19.58-1,34.49,1,53.11,3,72,8,90.46,15.76,102.88,18.13,103.36,20.62,103.67,23.08,103.94Z"/>
    <path class="cls-1" d="M50.06,111.05a82.52,82.52,0,0,0-9.7-.3,3.53,3.53,0,0,1-1.18,1.19,3.63,3.63,0,0,1-4.88-1.06,2.82,2.82,0,0,1-.19-.29,27.43,27.43,0,0,0-3.23.13,63.27,63.27,0,0,0-7.53,1.48c4.22,3.76,9,6,14.25,6,6.31.06,13.4-2,20.51-5.7A48,48,0,0,0,50.06,111.05Z"/>
  </g>
</svg>
