<svg id="cycle_Group" xmlns="http://www.w3.org/2000/svg" width="43.89mm" height="35.63mm" viewBox="0 0 124.42 101.01">
  <defs>
    <style>
      #cycle_Group:hover {cursor: pointer; }
      #cycle {cursor: pointer; }
      #cycle:hover .cls-1 {fill: #036eb8; !important; }
      .cls-1 {
        fill: #231815;
      }
    </style>
  </defs>
  <title>cycle</title>
  <g id="cycle">
    <path class="cls-1" d="M120.55,47.69a12.28,12.28,0,0,0-9,3.63,13,13,0,0,0-3.33,9.29,12.6,12.6,0,0,0,3.34,8.21,159.77,159.77,0,0,0,7.31-16.43C119.47,50.78,120,49.22,120.55,47.69Z"/>
    <path class="cls-1" d="M3.66,52.73a20,20,0,0,1,5.11-6.3,22.86,22.86,0,0,1,14.84-5A22.85,22.85,0,0,1,38.2,46.72,19.43,19.43,0,0,1,43.07,53a17.63,17.63,0,0,1,1.77,7.75,17.35,17.35,0,0,1-.9,5.49c.75.1,1.51.2,2.26.28a56.47,56.47,0,0,0,21-1.47,36.07,36.07,0,0,0,9.48-4.23c3-2,5.87-4.15,8.74-6.35,1.43-1.1,2.87-2.21,4.39-3.27.81-.56,1.65-1.11,2.53-1.63l0,0c-.06-.12-.11-.24-.19-.38s-.29-.54-.45-.81a18.81,18.81,0,0,0-1.09-1.6A17.25,17.25,0,0,0,88,43.94a12.82,12.82,0,0,0-6.48-3l-.63-.13a21.91,21.91,0,0,1-1.41,5.93,13.71,13.71,0,0,1-3.67,5.14,13.53,13.53,0,0,1-5.64,2.82,19.33,19.33,0,0,1-2.91.47c-.9.07-1.79.1-2.66.11-1.74,0-3.45-.07-5.13-.2a99.35,99.35,0,0,1-10-1.33c-1.71-.32-3.49-2.36-3.18-4.07s2.58-2.43,4.28-2.13h.07a92.81,92.81,0,0,0,9.29,1.17c1.55.11,3.09.17,4.59.15.74,0,1.48,0,2.19-.11a13.08,13.08,0,0,0,1.89-.31,6.85,6.85,0,0,0,4.77-4.48A19,19,0,0,0,74.44,36V36a2.32,2.32,0,0,1,0-.26,3.13,3.13,0,0,1,.31-1.28c.52-1.35,1.89-3.2,5.43-4a5.28,5.28,0,0,1,1.54-.25,23.94,23.94,0,0,1,6.82.73,24.8,24.8,0,0,1,6.34,2.59,30.31,30.31,0,0,1,5.38,3.95,32.45,32.45,0,0,1,2.33,2.36c.37.41.74.84,1.09,1.3.18.21.37.47.54.7l.28.39.15.21.19.31a9.09,9.09,0,0,1,1.53,4l.1,0c.21-.18.41-.39.63-.56a20.51,20.51,0,0,1,14.73-4.52l-.15,1.94a18.8,18.8,0,0,0-7,1.06,19.56,19.56,0,0,0-6,3.48,16.73,16.73,0,0,0-4.17,5.41,15,15,0,0,0-1.47,6.52,15.58,15.58,0,0,0,5.79,11.76c.22.19.46.36.7.55.36-.64.71-1.27,1.06-1.92a15.64,15.64,0,0,1-3.11-4.1A14.85,14.85,0,0,1,106,60.7a15,15,0,0,1,.79-5.86,14.09,14.09,0,0,1,3.12-5.1,12.89,12.89,0,0,1,5-3.19,14.93,14.93,0,0,1,5.75-.8v1.69C136.38.21,100.25-5,63.15,3.16,36.59,9,0,27.77,0,48.5a27,27,0,0,0,1.9,9.61A18.67,18.67,0,0,1,3.66,52.73Zm65-30.06c4.12,0,10,.61,8.26,5.71-1.12,3.21-5.12,9-9.23,8.75-3.07-.17-6.8-5.11-6.8-8.5S64.5,22.67,68.61,22.67Z"/>
    <path class="cls-1" d="M39.06,65.36c.65.15,1.31.29,2,.41a14.05,14.05,0,0,0,.75-5A15.31,15.31,0,0,0,40,54.45a20.24,20.24,0,0,0-3.84-5.38,18.12,18.12,0,0,0-12.59-5.51,21.62,21.62,0,0,0-7,1.26,19.09,19.09,0,0,0-6,3.71A16.21,16.21,0,0,0,5.22,60.72,15.39,15.39,0,0,0,6.4,66.5a60.64,60.64,0,0,0,6.4,7.78,19.46,19.46,0,0,0,10.81,3.29,21.37,21.37,0,0,0,6.92-1.29,19,19,0,0,0,5.93-3.61,16.36,16.36,0,0,0,3.22-3.93c-.56-.1-1.13-.2-1.69-.32a11.91,11.91,0,0,1-7.92,6.82,21.36,21.36,0,0,1-5.94.74A16.19,16.19,0,0,1,12.9,71.84a15.17,15.17,0,0,1-5-11A16.28,16.28,0,0,1,12,49.51,14.14,14.14,0,0,1,17.22,46a14.78,14.78,0,0,1,6.16-.93,18.77,18.77,0,0,1,11.07,4.75,17.47,17.47,0,0,1,3.85,4.79,11.65,11.65,0,0,1,1.47,6.24A25.8,25.8,0,0,1,39.06,65.36Z"/>
    <path class="cls-1" d="M106.93,74.16a19.54,19.54,0,0,1-4.88-6.27,17.61,17.61,0,0,1-1.8-7.77,17.14,17.14,0,0,1,1.88-7.75c.2-.41.44-.79.67-1.17-1.65-.05-3.86.38-5.87.4l-.53.24A39.13,39.13,0,0,0,92,54.43l-4.52,2.93-9.2,5.88A39.46,39.46,0,0,1,68,67.84c-.88.3-1.81.44-2.71.67a26,26,0,0,1-2.74.54l-2.76.41L57,69.69a69.47,69.47,0,0,1-11.08-.12c-1.1-.1-2.2-.23-3.29-.38a19.56,19.56,0,0,1-4.46,5.48A22.66,22.66,0,0,1,23.61,80a23.44,23.44,0,0,1-5.27-.52c14,12,33.5,20.79,48.7,21.48,19.13.87,32-11.11,41-25.94C107.67,74.74,107.29,74.47,106.93,74.16Z"/>
    <path class="cls-1" d="M35.65,56a14.52,14.52,0,0,0-3.11-4,16,16,0,0,0-9.32-4.26,11.56,11.56,0,0,0-9.37,3.47,13.79,13.79,0,0,0-3.59,9.65,12.64,12.64,0,0,0,4.25,9.25,13.63,13.63,0,0,0,9.6,3.4c3.58-.08,7.18-.92,9.36-3.34a9.31,9.31,0,0,0,1.59-2.39l-.11,0A45.7,45.7,0,0,1,29.58,66a26.08,26.08,0,0,1-5.22-2.63,1.82,1.82,0,1,1,2-3l.05,0,.11.07a32,32,0,0,0,9.32,4.08l.29.08a37,37,0,0,0,.55-4A8.64,8.64,0,0,0,35.65,56Z"/>
  </g>
</svg>
