<?xml version="1.0" encoding="utf-8"?>
<!-- Generator: Adobe Illustrator 22.0.0, SVG Export Plug-In . SVG Version: 6.00 Build 0)  -->
<svg version="1.1" id="cycle_x5F_Group" xmlns="http://www.w3.org/2000/svg" xmlns:xlink="http://www.w3.org/1999/xlink" x="0px"
	 y="0px" viewBox="0 0 128.1 104" style="enable-background:new 0 0 128.1 104;" xml:space="preserve">
<style type="text/css">
	.st0{fill:#036EB8;}
</style>
<g id="cycle">
	<path class="st0" d="M124.1,49.1c-3.5,0-6.9,1.2-9.3,3.7c-2.4,2.5-3.5,6.1-3.4,9.6c0.1,3.1,1.3,6.2,3.4,8.4
		c2.9-5.6,5.4-11.4,7.5-16.9C123,52.3,123.6,50.7,124.1,49.1z"/>
	<path class="st0" d="M3.8,54.3c1.3-2.5,3.1-4.7,5.3-6.5c4.3-3.5,9.8-5.3,15.3-5.2c5.4,0,10.9,1.9,15,5.5c2.1,1.8,3.8,4,5,6.4
		c1.2,2.5,1.8,5.2,1.8,8c0,1.9-0.3,3.8-0.9,5.7c0.8,0.1,1.6,0.2,2.3,0.3c7.2,0.8,14.6,0.4,21.6-1.5c3.5-1,6.7-2.5,9.8-4.4
		c3.1-2,6-4.3,9-6.5c1.5-1.1,3-2.3,4.5-3.4c0.8-0.6,1.7-1.1,2.6-1.7c0,0,0,0,0,0c-0.1-0.1-0.1-0.3-0.2-0.4c-0.1-0.3-0.3-0.6-0.5-0.8
		c-0.3-0.6-0.7-1.1-1.1-1.7c-0.8-1.1-1.7-2-2.7-2.9c-1-0.9-2-1.5-3.1-2c-1.1-0.6-2.3-0.8-3.6-1.1L83.2,42c-0.2,2-0.6,4-1.5,6.1
		c-0.8,1.9-2,3.8-3.8,5.3c-1.7,1.5-3.8,2.4-5.8,2.9c-1,0.3-2,0.4-3,0.5c-0.9,0.1-1.8,0.1-2.7,0.1c-1.8,0-3.5-0.1-5.3-0.2
		c-3.5-0.3-6.8-0.7-10.3-1.4c-1.8-0.3-3.6-2.4-3.3-4.2c0.3-1.8,2.7-2.5,4.4-2.2l0.1,0c3.1,0.5,6.4,1,9.6,1.2
		c1.6,0.1,3.2,0.2,4.7,0.2c0.8,0,1.5,0,2.3-0.1c0.7-0.1,1.3-0.2,1.9-0.3c2.5-0.6,3.9-2.3,4.9-4.6c0.9-2.4,1.3-5.1,1.1-8.1l0-0.1
		c0,0,0-0.1,0-0.3c0-0.5,0.1-0.9,0.3-1.3c0.5-1.4,1.9-3.3,5.6-4.1c0.5-0.2,1-0.3,1.6-0.3c2.3,0,4.7,0.1,7,0.8
		c2.3,0.6,4.5,1.5,6.5,2.7c2,1.2,3.9,2.5,5.5,4.1c0.8,0.8,1.6,1.6,2.4,2.4c0.4,0.4,0.8,0.9,1.1,1.3c0.2,0.2,0.4,0.5,0.6,0.7l0.3,0.4
		l0.1,0.2l0.2,0.3c1,1.6,1.5,3,1.6,4.1c0,0,0.1,0,0.1,0c0.2-0.2,0.4-0.4,0.6-0.6c4.2-3.5,9.8-5.1,15.2-4.6l-0.1,2
		c-2.4-0.1-4.9,0.3-7.2,1.1c-2.3,0.8-4.4,2-6.2,3.6c-1.8,1.6-3.3,3.5-4.3,5.6c-1,2.1-1.5,4.4-1.5,6.7c0,4.7,2.3,9.1,6,12.1
		c0.2,0.2,0.5,0.4,0.7,0.6c0.4-0.7,0.7-1.3,1.1-2c-1.3-1.2-2.4-2.6-3.2-4.2c-0.9-1.8-1.5-3.8-1.6-5.9c-0.1-2,0.1-4.1,0.8-6
		c0.7-1.9,1.8-3.8,3.2-5.3c1.4-1.5,3.3-2.6,5.2-3.3c1.9-0.7,4-0.9,5.9-0.8v1.7c16.2-48.6-21-54-59.2-45.6C37.7,9.3,0,28.6,0,49.9
		c0,3.3,0.7,6.6,2,9.9C2.3,57.9,2.9,56,3.8,54.3z M70.6,23.3c4.2,0,10.3,0.6,8.5,5.9c-1.2,3.3-5.3,9.2-9.5,9c-3.2-0.2-7-5.3-7-8.7
		S66.4,23.3,70.6,23.3z"/>
	<path class="st0" d="M40.2,67.3c0.7,0.1,1.4,0.3,2,0.4c0.6-1.7,0.8-3.4,0.8-5.2c-0.1-2.3-0.8-4.5-1.8-6.5c-1-2-2.3-3.9-4-5.5
		c-3.2-3.3-8-5.6-13-5.7c-2.5,0-4.9,0.5-7.2,1.3c-2.3,0.9-4.4,2.2-6.2,3.8c-3.5,3.3-5.7,7.9-5.5,12.5c0,2,0.4,4.1,1.2,5.9
		c1.9,2.7,4.1,5.4,6.6,8c3.2,2.2,7.2,3.4,11.1,3.4c2.4,0,4.9-0.5,7.1-1.3c2.3-0.9,4.3-2.1,6.1-3.7c1.3-1.2,2.4-2.6,3.3-4
		c-0.6-0.1-1.2-0.2-1.7-0.3c-0.6,1.4-1.5,2.7-2.6,3.8c-1.6,1.6-3.6,2.7-5.6,3.2c-2,0.6-4.1,0.8-6.1,0.8c-4.2,0.1-8.4-1.4-11.6-4.3
		c-3.2-2.8-5.1-7-5.2-11.3C8,58.5,9.4,54.1,12.4,51c1.5-1.6,3.3-2.8,5.3-3.6c2-0.8,4.2-1.1,6.3-1c4.3,0.3,8.3,2.1,11.4,4.9
		c1.6,1.4,2.9,3,4,4.9c1,1.9,1.7,4.1,1.5,6.4C40.8,64.2,40.6,65.7,40.2,67.3z"/>
	<path class="st0" d="M110.1,76.3c-2.1-1.8-3.8-4-5-6.5c-1.2-2.5-1.9-5.2-1.9-8c0-2.8,0.7-5.5,1.9-8c0.2-0.4,0.5-0.8,0.7-1.2
		c-1.7,0-4,0.4-6,0.4c-0.2,0.1-0.4,0.2-0.5,0.2c-1.5,0.7-3,1.7-4.6,2.7L90,59l-9.5,6.1c-3.3,2-6.9,3.7-10.6,4.7
		c-0.9,0.3-1.9,0.5-2.8,0.7c-0.9,0.2-1.9,0.4-2.8,0.6l-2.8,0.4l-2.9,0.2C54.9,72,51,72,47.3,71.6c-1.1-0.1-2.3-0.2-3.4-0.4
		c-1.2,2.1-2.7,4.1-4.6,5.6c-4.1,3.6-9.6,5.4-15,5.5c-1.8,0-3.6-0.2-5.4-0.5c14.4,12.3,34.5,21.4,50.1,22.1
		c19.7,0.9,32.9-11.4,42.2-26.7C110.8,76.9,110.4,76.6,110.1,76.3z"/>
	<path class="st0" d="M36.7,57.7c-0.8-1.5-1.9-2.9-3.2-4.2c-2.6-2.4-6.1-4.1-9.6-4.4c-3.5-0.3-7.2,1-9.6,3.6
		c-2.5,2.6-3.8,6.3-3.7,9.9c0,3.6,1.7,7.1,4.4,9.5c2.7,2.4,6.3,3.6,9.9,3.5c3.7-0.1,7.4-1,9.6-3.4c0.7-0.7,1.2-1.6,1.6-2.5
		c0,0-0.1,0-0.1,0c-1.9-0.5-3.7-1-5.5-1.7c-1.8-0.7-3.6-1.6-5.4-2.7c-0.9-0.6-1.1-1.7-0.6-2.6c0.6-0.9,1.7-1.1,2.6-0.6
		c0,0,0,0,0.1,0l0.1,0.1c2.7,1.9,6.2,3.2,9.6,4.2c0.1,0,0.2,0.1,0.3,0.1c0.3-1.3,0.4-2.7,0.6-4.1C37.9,60.8,37.5,59.2,36.7,57.7z"/>
</g>
</svg>
