<svg id="doublecycle_Group" xmlns="http://www.w3.org/2000/svg" width="42.12mm" height="36.8mm" viewBox="0 0 119.41 104.33">
  <defs>
    <style>
      #doublecycle_Group:hover {cursor: pointer; }
      #doublecycle {cursor: pointer; }
      #doublecycle:hover .cls-1 {fill: #036eb8; !important; }
      .cls-1 {
        fill: #231815;
      }
    </style>
  </defs>
  <title>doublecycle</title>
  <g id="doublecycle">
    <path class="cls-1" d="M107.47,58.15a24.38,24.38,0,0,0-5.14,2.68,18.48,18.48,0,0,0-4.22,3.8,15,15,0,0,0-2.66,4.81,13.86,13.86,0,0,0-.59,5.37,19.28,19.28,0,0,0,1.33,5.51,19.72,19.72,0,0,0,1.32,2.59c.09.16.19.32.29.48,8.4-8.11,15.14-17.62,18.74-26.79A25.57,25.57,0,0,0,107.47,58.15Z"/>
    <path class="cls-1" d="M95.08,84.6a21.18,21.18,0,0,1-1.77-2.88,19,19,0,0,1-2-6.49A16.37,16.37,0,0,1,92,68.32a18.61,18.61,0,0,1,3.33-6,24.49,24.49,0,0,1,9.38-6.85c-.86,0-1.73,0-2.6,0s-1.76,0-2.85-.11a5.17,5.17,0,0,1-1-.16l-.7-.2-.42-.17a8.48,8.48,0,0,1-1.77-1,8,8,0,0,1-2.49-3.48A15.15,15.15,0,0,1,92,47.11c-.25-2-.25-3.69-.39-5.3,0-.65-.11-1.27-.2-1.86-1.81,0-8.57-.42-12.27,1-3.1,1.15-1.25,3.16,0,3.94s11.74,6.93,12.78,9.42a4.84,4.84,0,0,1-.07,4.5c-.46,2.4-11.82,19.29-14,21.9a3.95,3.95,0,0,1-6.1-5,2.2,2.2,0,0,1,.2-.23l0,0c2.06-2.14,9.85-12.3,11-14.81,2.12-4.31-7-5.83-9.17-7-1.68-.49-7.53-2.86-9.78-7.09a12.53,12.53,0,0,1-1-4.91A13.12,13.12,0,0,1,64,36.85c2.2-5.54,11.35-8.12,13.37-8.39a43.78,43.78,0,0,1,10.52,0c.84.12,4.09.84,4.72,1l.35.1a5.24,5.24,0,0,1,2.78,1.89c.12.12.23.23.33.35A8.94,8.94,0,0,1,98,35.56a25.05,25.05,0,0,1,.64,6c0,1.78-.06,3.55,0,4.89a3.41,3.41,0,0,0,3.51,3.36c1.63.07,13.72-.17,15.4-.24a2.72,2.72,0,0,1,1.12.18,31.07,31.07,0,0,0,.74-7.31C118.81,19.09,77.3,4.51,52,1.28,2-5.14-4.47,12.93,2.17,48.56c.41,2.24.93,4.43,1.51,6.58a27.83,27.83,0,0,1,4.62-.53,23.41,23.41,0,0,1,7.11.9,20.33,20.33,0,0,1,11.53,9.2,13.72,13.72,0,0,1,1.51,4.11c2.74-3.5,5.73-7.44,6.59-8.83.81-2.32-1.91-3.2-3.55-3.87l-1.88-.76c-.45-.1-12.63-5.38-14-9.4a11.11,11.11,0,0,1-.78-6,11.87,11.87,0,0,1,2.32-5.3c.25-.33.5-.62.77-.92a10.51,10.51,0,0,1,.89-.88,15.86,15.86,0,0,1,1.72-1.34,17.44,17.44,0,0,1,3.21-1.64,26.34,26.34,0,0,1,5.83-1.55A32.86,32.86,0,0,1,35.09,28a29.12,29.12,0,0,1,5.64.61c1,.19,5.48,1.42,7.14,3.6a10.87,10.87,0,0,1,2,6.15c.22,1.67.25,3.14.33,4.52a18,18,0,0,0,.45,3.54,5.9,5.9,0,0,0,1.44,2.39A12.69,12.69,0,0,0,58.15,52a28.82,28.82,0,0,0,7.77.72h0a2.76,2.76,0,0,1,.24,5.52,37.29,37.29,0,0,1-9.31-.61,18.49,18.49,0,0,1-9.08-4.45,12.19,12.19,0,0,1-3.12-4.78,24.12,24.12,0,0,1-1-4.91c-.15-1.3.21-2.83-.47-3.58-.88-.72-13-.36-14.13,1.92-.71,1.42.63,2.64,1.69,3.46.53.4,2.79,1.41,3.09,1.59s.78.39,1.16.61a29.27,29.27,0,0,1,4.88,3.18,19.57,19.57,0,0,1,2.7,2.56,8,8,0,0,1,1.15,2,7.32,7.32,0,0,1,.48,2.27c.06,1.51-1.83,5-2,5.32-.23.47-.47.89-.69,1.29-1.81,3.08-8.77,13.6-10.81,16.12l-.13.15a4.42,4.42,0,0,1-4,1.6,17.45,17.45,0,0,1-2.12,3.34A16.73,16.73,0,0,1,21.63,88c9.06,9.67,20,15.6,30.41,16.24,14.72.9,30.87-7.3,43.66-18.91A8.81,8.81,0,0,1,95.08,84.6ZM106.69,26c6.68,4.93,4.11,13.18-2,12.71-4.21-.32-3.57-2.23-6.07-7.77-2.27-5-10.75-2.38-10.44-5.83C88.47,21.44,99.89,21,106.69,26ZM56.41,38.68c-5-.49-3.65-2.31-6.15-7.85C48,25.81,39.42,28.46,39.57,25c.16-3.65,12.31-3.89,19.11,1.13S62.54,39.27,56.41,38.68Z"/>
    <path class="cls-1" d="M24.37,65.55a16.62,16.62,0,0,0-9.58-8.08,18.9,18.9,0,0,0-10.52-.2A78.54,78.54,0,0,0,19.73,85.91a14.94,14.94,0,0,0,4.52-5.06,4.44,4.44,0,0,1-.54-6.14l.08-.1c.5-.58,1.35-1.62,2.36-2.88v-.09A16.09,16.09,0,0,0,24.37,65.55Z"/>
  </g>
</svg>
