<svg id="doubleswim_group" xmlns="http://www.w3.org/2000/svg" width="42.17mm" height="38.85mm" viewBox="0 0 119.55 110.13">
  <defs>
    <style>
      #doubleswim_group:hover {cursor: pointer; }
      #doubleswim {cursor: pointer; }
      #doubleswim:hover .cls-1 {fill: #036eb8; !important; }
      .cls-1 {
        fill: #231815;
      }
    </style>
  </defs>
  <title>doubleswim</title>
  <g id="doubleswim">
    <path class="cls-1" d="M13.24,73.47a61.54,61.54,0,0,1,6.39-1,107,107,0,0,1,12.75-.56,188.44,188.44,0,0,1,25.19,2.4c7.39,1.11,14.74,2.35,22.1,3.33-.28-.82-.56-1.63-.82-2.45-.26-1.12-.51-2.24-.69-3.39-6.56-.73-13.1-1.54-19.65-2.26-4.46-.51-8.91-1-13.36-1.45-.73,0-1.57-.1-2.46-.21-3.71-.29-7.43-.38-11.14-.31a128.53,128.53,0,0,0-13.45.91A110.63,110.63,0,0,0,5.84,70.63c.62,1.51,1.27,3,2,4.5l.64-.27c.54-.2,1.07-.39,1.61-.55C11.11,74,12.17,73.71,13.24,73.47Z"/>
    <path class="cls-1" d="M104,78.83l4.22-.49q2.16-2.62,4-5.29a15.85,15.85,0,0,1-2.47.4l-1.78.18-1.76.06c-1.17.06-2.32,0-3.48,0s-2.3,0-3.44-.11c-2.13-.08-4.25-.22-6.37-.38.5.89.82,1.49,1.26,2.42L97,78.77a25.39,25.39,0,0,0,4,.27C101.94,79,103,78.92,104,78.83Z"/>
    <path class="cls-1" d="M17.84,65.94c4.56-.39,9.12-.63,13.69-.6h.7c-.23-1.19-.46-2.37-.62-3.58l-.18-2-.08-1v-1l.05-2.08.25-2.11a25,25,0,0,1,.61-2.8c-1.85,1-3.73,1.9-5.63,2.74q-4.22,1.88-8.58,3.38c-1.46.5-2.92,1-4.4,1.41s-2.93.84-4.56,1.22a3.25,3.25,0,0,1-1.46-6.33l.09,0,.14,0c2.7-.53,5.59-1.28,8.34-2.1s5.52-1.8,8.22-2.87a85,85,0,0,0,7.88-3.6c1.78-.91,3.48-1.93,5.15-3a18,18,0,0,1,1.35-1.25c.29-.24.59-.48.92-.71l.17-.12c-.26-1.41-.68-2.78-.85-4.21L38.7,33l-.22-2.23c-.08-.75-.14-1.49-.15-2.24s-.06-1.5-.06-2.26a50.76,50.76,0,0,1,.83-9,43.84,43.84,0,0,1,1.08-4.46c.23-.74.46-1.48.75-2.22.14-.37.28-.73.44-1.11.08-.19.15-.37.25-.57s.16-.37.31-.65a4,4,0,1,1,6.93,3.81,1.65,1.65,0,0,0-.13.24c-.06.1-.12.24-.18.36s-.24.53-.36.8c-.24.54-.46,1.13-.67,1.71-.41,1.17-.77,2.38-1.07,3.62a43.69,43.69,0,0,0-1.2,7.62c0,.65-.06,1.3-.1,1.95s0,1.31,0,2l0,2,.17,2a16.65,16.65,0,0,0,.22,2,4.47,4.47,0,0,1,0,2s0,.06,0,.09A4.91,4.91,0,0,1,46.27,47c.13-.08,0,0,0,0l-.13.13c-.09.09-.2.2-.3.32s-.41.51-.61.78a7.46,7.46,0,0,0-.53.87,6.09,6.09,0,0,0-.44.93,11.33,11.33,0,0,0-.79,4.2l0,1.14.16,1.18.07.58.14.61.28,1.2c.25.81.54,1.62.81,2.43l.63,1.77,1.76,3.09,5.32.58a3.6,3.6,0,0,1,2.3-4.1l.23-.07.11,0c2.64-.75,5.38-1.63,8-2.53s5.34-1.87,7.95-2.92,5.21-2.14,7.7-3.37a61.17,61.17,0,0,0,7-3.94l0-.11a41,41,0,0,1-1.15-4.68,40.48,40.48,0,0,1,1-19.22,42,42,0,0,1,1.67-4.59c.34-.75.67-1.49,1.07-2.23.18-.37.39-.74.6-1.11.06-.11.14-.23.2-.35C73.8,8.52,54.73,1.88,38.56.34,4.55-2.89.67,17.18,0,41.15A73.39,73.39,0,0,0,4.73,67.71,125.69,125.69,0,0,1,17.84,65.94ZM54.16,34.43a5.69,5.69,0,0,1,5.39,6,5.69,5.69,0,0,1-5.39,5.95,5.69,5.69,0,0,1-5.4-5.95A5.69,5.69,0,0,1,54.16,34.43Z"/>
    <path class="cls-1" d="M78.25,60.42c-1.51.8-3,1.56-4.56,2.3-2.65,1.28-5.34,2.46-8,3.59a44.4,44.4,0,0,1-4.28,1.52c3.62.42,7.25.83,10.87,1.19,1.88.19,3.77.36,5.65.53a22.48,22.48,0,0,1,0-3.76C78.06,63.93,78,62.14,78.25,60.42Z"/>
    <path class="cls-1" d="M75.64,98.54C72.52,97.86,69.48,97,66.49,96c-6-1.95-11.83-4.15-17.75-6.06a92.91,92.91,0,0,0-18-4.27,73.46,73.46,0,0,0-9.1-.61c-1.51,0-3,.07-4.52.17l-2.24.23a3.06,3.06,0,0,1-1.59-.24c9.11,14.45,21.62,24.92,33.36,24.92,12.38,0,25-4.22,36.26-10.67A34.29,34.29,0,0,1,75.64,98.54Z"/>
    <path class="cls-1" d="M95.39,21.35l-.13.21c-.17.27-.34.54-.49.84-.33.57-.62,1.17-.92,1.77a35.11,35.11,0,0,0-1.51,3.76,32.78,32.78,0,0,0-1.65,8A32.2,32.2,0,0,0,91,44a31.26,31.26,0,0,0,.85,4s2.35,2.81,2,5.32c-.36,2.83-2.62,5.1-3.64,7.08l0,.14a11.78,11.78,0,0,0-.12,4.81c.09.42.12.83.22,1.25l.38,1.28a10,10,0,0,0,.44,1.3l.47,1.25c2.57.11,5.13.17,7.69.16h1.68l1.66-.09c1.12,0,2.23-.1,3.31-.23l1.64-.16,1.58-.28c1-.13,4.1-.27,5.29-.5,3-5.27,4.84-10.49,5.1-15.28C120.13,42.86,109.94,31.05,95.39,21.35Zm5.35,35.1c-3,0-5.83-3.11-5.83-6.4a5.66,5.66,0,0,1,5.58-5.74c3,0,5.64,2.9,5.64,6.19A5.69,5.69,0,0,1,100.74,56.45Z"/>
    <path class="cls-1" d="M94.59,82.19c-4.24-.3-8.4-.93-12.57-1.48C73.71,79.5,65.44,78.15,57.18,77c-4.14-.59-8.27-1.07-12.4-1.48a122.18,122.18,0,0,0-12.39-.47,88.28,88.28,0,0,0-12.3.92,55.28,55.28,0,0,0-5.94,1.21,27.47,27.47,0,0,0-2.83.89c-.47.16-.9.35-1.34.53l-.37.19c.85,1.64,1.76,3.26,2.7,4.82,1.23-1.82,2.95-1.46,4.49-1.78a41.35,41.35,0,0,1,4.85-.24,54.57,54.57,0,0,1,9.57,1,147.92,147.92,0,0,1,18.3,5c6,2,11.81,4.2,17.71,6.16a89.45,89.45,0,0,0,8.9,2.51,50.72,50.72,0,0,0,10.69.83A94.69,94.69,0,0,0,104.51,82.5,85.88,85.88,0,0,1,94.59,82.19Z"/>
  </g>
</svg>
