<svg id="horseWater_group" xmlns="http://www.w3.org/2000/svg" width="38.63mm" height="40.35mm" viewBox="0 0 109.51 114.38">
  <defs>
    <style>
      #horseWater_group:hover {cursor: pointer; }
      #horseWater {cursor: pointer; }
      #horseWater:hover .cls-1 {fill: #036eb8; !important; }
      .cls-1 {
        fill: #231815;
      }
    </style>
  </defs>
  <title>HorseWater</title>
  <g id="horseWater">
    <path class="cls-1" d="M9,44.9C7.41,43.48,5.8,42,4.15,40.71a21.1,21.1,0,0,0-4-2.65c.07,1.36.17,2.74.29,4.14a10.59,10.59,0,0,1,3.12,1.41A30.1,30.1,0,0,1,6.22,45.5c1.67,1.32,3.25,2.71,4.83,4.07a88.7,88.7,0,0,0,9.74,7.56,25.82,25.82,0,0,0,11,4.26c.62,0,1.25.08,1.87.11-.42-1.22-.87-2.44-1.36-3.64-.19,0-.39-.06-.58-.09a34.66,34.66,0,0,1-12.29-4.88A77.63,77.63,0,0,1,9,44.9Z"/>
    <path class="cls-1" d="M40.29,44.11l-1.58-.92c.2.52.41,1,.59,1.55a98.47,98.47,0,0,1,3.18,10.48,17.61,17.61,0,0,0,1.88-.43c3.28-.86,6.69-2.26,10.14-3.46-2.09-.93-4.11-1.9-6.16-2.91C45.63,47.06,42.94,45.65,40.29,44.11Z"/>
    <path class="cls-1" d="M91.59,52l-3.17-.77c-2.1-.55-4.15-1.15-6.2-1.55-1-.23-2.06-.36-3.09-.49l-1.56-.09c-.52,0-1,0-1.57,0-1,0-2.09.13-3.14.22s-2.09.33-3.13.5a111.92,111.92,0,0,0-12.39,3.36c-4.13,1.25-8,2.94-12.38,4a17.7,17.7,0,0,1-1.92.41c.21,1,.39,2,.56,3l.24-.05a95.18,95.18,0,0,0,11.9-3.27A111.55,111.55,0,0,1,68,53.84c1.07-.19,2.13-.41,3.24-.5a27.88,27.88,0,0,1,3.31-.2,57.06,57.06,0,0,1,6.42.47,39.48,39.48,0,0,1,6.33,1.29A23.41,23.41,0,0,1,90.34,56c.58.25,1.14.5,1.7.79a19.27,19.27,0,0,1,.85-3.34,8.87,8.87,0,0,1,.43-1l-.12,0C92.66,52.26,92.12,52.15,91.59,52Z"/>
    <path class="cls-1" d="M22.56,98.86c.18-.13.51-.42.77-.65s.55-.51.81-.79c.53-.54,1.05-1.11,1.56-1.68a38.77,38.77,0,0,0,2.89-3.64A40.32,40.32,0,0,0,31,88.16,34.66,34.66,0,0,0,33,84c2.31-5.67,3.36-11.8,2-17.59-.18-.83-.39-1.66-.63-2.48-1,0-1.93-.07-2.9-.16a28.19,28.19,0,0,1-12-4.69,82.94,82.94,0,0,1-9.91-7.9c-1.56-1.39-3.11-2.79-4.7-4.08A17.43,17.43,0,0,0,.65,44.31c.43,4.3,1,8.79,1.81,13.4,2.48,15,9.18,30.54,19.67,41.53A3.78,3.78,0,0,1,22.56,98.86Z"/>
    <path class="cls-1" d="M108.36,57.06c-5.51-22.34-62.22-58.83-85.5-57C4.46,1.52-.64,16,.06,35.92a19.75,19.75,0,0,1,5.36,3.22c1.73,1.37,3.36,2.8,5,4.2A76.48,76.48,0,0,0,20.6,51a33.13,33.13,0,0,0,10.6,4.25c-.9-2.06-1.85-4.12-2.79-6.17-1.32-2.86-2.71-5.7-4.08-8.56-.67-1.43-1.37-2.86-2.09-4.27l-1-2.14c-.34-.69-.71-1.45-1-2.06l-.43-1a6.12,6.12,0,0,1,11-5.4l.37.69c.12.1.24.18.35.29l.21.25,0,0a42.32,42.32,0,0,0,5.73,5.59C39.64,34.3,42,36,44.35,37.59s4.85,3.16,7.35,4.65,5.08,2.93,7.6,4.24l.05,0a3.17,3.17,0,0,1,1.7,2.71c2.67-.82,5.36-1.57,8.14-2.14a36.2,36.2,0,0,1,13.54-.47c2.24.35,4.36.94,6.44,1.46l3.11.83c.51.14,1,.25,1.55.37a1.73,1.73,0,0,1,1.34.87,3.77,3.77,0,0,1,1-.49l.27-.09a1.52,1.52,0,0,1,.94,2.89,1.7,1.7,0,0,1-.31.06c-.36,0-1,.92-1.39,2a18.7,18.7,0,0,0-.88,3.41,59.81,59.81,0,0,0-.71,7.41c-.21,5-.09,10.06,0,15.16a32.45,32.45,0,0,1-.71,7.87,12.31,12.31,0,0,1-1.58,3.88,7.18,7.18,0,0,1-1.55,1.67,5.51,5.51,0,0,1-2.16,1A8.18,8.18,0,0,1,87,95c-.33,0-.67.06-1,.07a7.6,7.6,0,0,1-2.19-.18,4.29,4.29,0,0,1-2.16-1.26,4.71,4.71,0,0,1-1-2.19,9.41,9.41,0,0,1-.14-1.06c0-.29,0-.59-.11-.88a9.14,9.14,0,0,0-.39-1.68,5.31,5.31,0,0,0-.71-1.43,2.8,2.8,0,0,0-.48-.54,2.14,2.14,0,0,0-.26-.19c-.06,0-.22-.12-.16-.1a1,1,0,0,1-.71-1.17,1,1,0,0,1,1.18-.71,2.32,2.32,0,0,1,.7.31,3.87,3.87,0,0,1,.51.36,5,5,0,0,1,.81.86,7.4,7.4,0,0,1,1,1.95,11.44,11.44,0,0,1,.52,2c.06.34.09.68.13,1a7.67,7.67,0,0,0,.13.83,2.06,2.06,0,0,0,1.68,1.8,5.81,5.81,0,0,0,1.59.1c.29,0,.58,0,.88-.08a6.83,6.83,0,0,0,.83-.12,3.71,3.71,0,0,0,2.27-1.74,10,10,0,0,0,1.21-3.17,30.8,30.8,0,0,0,.52-7.28c-.19-5.06-.4-10.18-.27-15.32.06-2.08.17-4.17.41-6.28A18.2,18.2,0,0,0,89.62,58a28.78,28.78,0,0,0-2.92-.85,49,49,0,0,0-6-1,60.6,60.6,0,0,0-6.16-.37,21.93,21.93,0,0,0-3,.17,28,28,0,0,0-3,.45c-8,1.63-15.78,5.18-24.17,6.68l-.32.05c.1.76.19,1.51.26,2.28a41.61,41.61,0,0,1,.14,5.6,48.73,48.73,0,0,1-.62,5.56,47.6,47.6,0,0,1-3.06,10.55,58.48,58.48,0,0,1-5,9.52c-1,1.49-2,3-3.07,4.39-.54.72-1.1,1.43-1.68,2.12l-.89,1c-.32.36-.58.66-1,1.1l0,0a46.17,46.17,0,0,0,11.8,6.4,1,1,0,0,1,.56-.53c.55-.19,13.48-4.79,20.63-5.55a48.26,48.26,0,0,1,13.29.94,9.77,9.77,0,0,0-3.46-2.52c-3.59-1.59-7.88-1.69-11.92-1.18-2,.29-4,.74-6.11,1.15a29.17,29.17,0,0,1-6.39.74,9.09,9.09,0,0,1-3.42-.7,4.88,4.88,0,0,1-1.61-1.18,5.59,5.59,0,0,1-.57-.89,4.37,4.37,0,0,1-.33-1,5.49,5.49,0,0,1-.11-1.88,4.45,4.45,0,0,1,.6-1.94A3.36,3.36,0,0,1,43.6,95.8a4.08,4.08,0,0,1,2.08-.19,1,1,0,0,1-.19,1.93h-.1a2.31,2.31,0,0,0-1,.19,1.25,1.25,0,0,0-.62.6,2.42,2.42,0,0,0-.24,1,4.7,4.7,0,0,0,.11,1.21A2,2,0,0,0,45,102a7.08,7.08,0,0,0,2.55.45,29.33,29.33,0,0,0,5.87-.66c2-.4,4.09-.91,6.2-1.23a41,41,0,0,1,6.5-.54,23.27,23.27,0,0,1,6.75.92,14.62,14.62,0,0,1,6.27,3.69,13.77,13.77,0,0,1,2.37,3.28C100.34,98.1,113.58,78.28,108.36,57.06ZM20,22.39a6.36,6.36,0,0,1-6.26-6.47,6.27,6.27,0,1,1,12.53,0A6.36,6.36,0,0,1,20,22.39Z"/>
    <path class="cls-1" d="M76.6,108.86c-4.42-.93-10-1.76-14.45-1.28-5.61.6-15.32,3.79-18.85,5a44.1,44.1,0,0,0,12.6,1.81A55.05,55.05,0,0,0,77,110,7.23,7.23,0,0,0,76.6,108.86Z"/>
  </g>
</svg>
