<?xml version="1.0" encoding="utf-8"?>
<!-- Generator: Adobe Illustrator 22.0.0, SVG Export Plug-In . SVG Version: 6.00 Build 0)  -->
<svg version="1.1" id="HorseridingGroup" xmlns="http://www.w3.org/2000/svg" xmlns:xlink="http://www.w3.org/1999/xlink" x="0px"
	 y="0px" viewBox="0 0 112.7 117.7" style="enable-background:new 0 0 112.7 117.7;" xml:space="preserve">
<style type="text/css">
	.st0{fill:#036EB8;}
</style>
<g id="horseriding">
	<path class="st0" d="M9.3,46.2c-1.7-1.5-3.3-3-5-4.3c-1.3-1-2.7-2.1-4.1-2.7c0.1,1.4,0.2,2.8,0.3,4.3c1.2,0.3,2.3,0.9,3.2,1.4
		c1,0.6,1.8,1.3,2.7,1.9c1.7,1.4,3.3,2.8,5,4.2c3.2,2.8,6.5,5.5,10,7.8c3.5,2.2,7.3,4,11.3,4.4c0.6,0.1,1.3,0.1,1.9,0.1
		c-0.4-1.3-0.9-2.5-1.4-3.7c-0.2,0-0.4-0.1-0.6-0.1c-4.5-0.8-8.8-2.6-12.7-5C16.1,52,12.7,49.2,9.3,46.2z"/>
	<path class="st0" d="M41.5,45.4c-0.5-0.3-1.1-0.6-1.6-1c0.2,0.5,0.4,1.1,0.6,1.6c1.3,3.5,2.4,7.1,3.3,10.8c0.6-0.1,1.3-0.2,1.9-0.4
		c3.4-0.9,6.9-2.3,10.4-3.6c-2.1-1-4.2-2-6.3-3C47,48.4,44.2,47,41.5,45.4z"/>
	<path class="st0" d="M94.3,53.5L91,52.8c-2.2-0.6-4.3-1.2-6.4-1.6c-1.1-0.2-2.1-0.4-3.2-0.5l-1.6-0.1c-0.5,0-1.1,0-1.6,0
		c-1.1,0-2.2,0.1-3.2,0.2c-1.1,0.1-2.2,0.3-3.2,0.5c-4.3,0.8-8.5,2.1-12.7,3.5c-4.3,1.3-8.3,3-12.7,4.2c-0.6,0.2-1.3,0.3-2,0.4
		c0.2,1,0.4,2.1,0.6,3.1c0.1,0,0.2,0,0.2,0c4.1-0.8,8.2-2,12.2-3.4c4.1-1.3,8.2-2.8,12.6-3.6c1.1-0.2,2.2-0.4,3.3-0.5
		c1.1-0.2,2.3-0.2,3.4-0.2c2.2,0,4.4,0.2,6.6,0.5c2.2,0.2,4.4,0.7,6.5,1.3c1.1,0.3,2.1,0.7,3.2,1.1c0.6,0.3,1.2,0.5,1.7,0.8
		c0.2-1.1,0.5-2.3,0.9-3.4c0.1-0.3,0.3-0.7,0.4-1.1c0,0-0.1,0-0.1,0C95.4,53.8,94.8,53.7,94.3,53.5z"/>
	<path class="st0" d="M23.2,101.8c0.2-0.1,0.5-0.4,0.8-0.7c0.3-0.3,0.6-0.5,0.8-0.8c0.5-0.6,1.1-1.1,1.6-1.7c1.1-1.2,2.1-2.4,3-3.7
		c0.9-1.3,1.8-2.7,2.5-4.1c0.8-1.4,1.5-2.8,2.1-4.3c2.4-5.8,3.5-12.1,2.1-18.1c-0.2-0.9-0.4-1.7-0.7-2.6c-1,0-2-0.1-3-0.2
		c-4.5-0.5-8.7-2.5-12.3-4.8c-3.7-2.4-7-5.3-10.2-8.1c-1.6-1.4-3.2-2.9-4.8-4.2c-1.4-1.1-2.9-2.3-4.4-2.9c0.4,4.4,1.1,9,1.9,13.8
		c2.5,15.5,9.4,31.4,20.2,42.7C22.9,102,23.1,101.9,23.2,101.8z"/>
	<path class="st0" d="M111.5,58.7c-5.7-23-64-60.6-88-58.7C4.6,1.6-0.7,16.4,0.1,37c2.2,0.8,3.9,2.1,5.5,3.3
		c1.8,1.4,3.5,2.9,5.1,4.3c3.4,2.9,6.8,5.6,10.5,7.9c3.4,2.1,7.1,3.6,10.9,4.4c-0.9-2.1-1.9-4.2-2.9-6.3c-1.4-2.9-2.8-5.9-4.2-8.8
		c-0.7-1.5-1.4-2.9-2.2-4.4l-1-2.2c-0.4-0.7-0.7-1.5-1-2.1l-0.4-1c-1.4-3.2,0.1-6.9,3.3-8.3c3-1.3,6.5-0.1,8,2.7
		c0.1,0.2,0.3,0.5,0.4,0.7c0.1,0.1,0.2,0.2,0.4,0.3c0.1,0.1,0.2,0.2,0.2,0.3l0,0c1.6,2,3.7,3.9,5.9,5.8c2.2,1.8,4.6,3.6,7.1,5.2
		c2.4,1.7,5,3.3,7.6,4.8c2.6,1.5,5.2,3,7.8,4.4l0.1,0c1.1,0.6,1.7,1.6,1.8,2.8c2.7-0.8,5.5-1.6,8.4-2.2c4.4-0.9,9.3-1.3,13.9-0.5
		c2.3,0.4,4.5,1,6.6,1.5l3.2,0.8c0.5,0.1,1.1,0.3,1.6,0.4c0.5,0.1,1,0.2,1.4,0.9c0.3-0.2,0.6-0.4,1-0.5l0.3-0.1c0.8-0.3,1.7,0.2,2,1
		c0.3,0.8-0.2,1.7-1,2c-0.1,0-0.2,0.1-0.3,0.1c-0.4,0-1.1,0.9-1.4,2c-0.4,1.1-0.7,2.3-0.9,3.5c-0.4,2.5-0.6,5-0.7,7.6
		c-0.2,5.2-0.1,10.4,0,15.6c0,2.7-0.1,5.4-0.7,8.1c-0.3,1.4-0.8,2.7-1.6,4c-0.4,0.6-0.9,1.2-1.6,1.7c-0.6,0.5-1.4,0.8-2.2,1
		c-0.4,0.1-0.7,0.1-1.1,0.1c-0.3,0-0.7,0.1-1,0.1c-0.7,0-1.5,0-2.3-0.2c-0.8-0.2-1.6-0.6-2.2-1.3c-0.6-0.7-0.9-1.5-1.1-2.3
		c-0.1-0.4-0.1-0.8-0.1-1.1c0-0.3-0.1-0.6-0.1-0.9c-0.1-0.6-0.2-1.2-0.4-1.7c-0.2-0.5-0.4-1.1-0.7-1.5c-0.1-0.2-0.3-0.4-0.5-0.6
		c-0.1-0.1-0.2-0.1-0.3-0.2c-0.1,0-0.2-0.1-0.2-0.1c-0.5-0.1-0.9-0.7-0.7-1.2c0.1-0.5,0.7-0.9,1.2-0.7c0.4,0.1,0.5,0.2,0.7,0.3
		c0.2,0.1,0.4,0.2,0.5,0.4c0.3,0.3,0.6,0.6,0.8,0.9c0.5,0.6,0.8,1.3,1,2c0.3,0.7,0.4,1.4,0.5,2.1c0.1,0.3,0.1,0.7,0.1,1
		c0,0.4,0.1,0.6,0.1,0.8c0.2,1.1,0.8,1.6,1.7,1.9c0.5,0.1,1.1,0.1,1.6,0.1c0.3,0,0.6,0,0.9-0.1c0.3,0,0.6-0.1,0.9-0.1
		c0.9-0.2,1.7-0.9,2.3-1.8c0.6-0.9,1-2.1,1.2-3.3c0.5-2.4,0.6-5,0.5-7.5c-0.2-5.2-0.4-10.5-0.3-15.8c0.1-2.1,0.2-4.3,0.4-6.5
		c-0.7-0.3-1.4-0.6-2.2-0.9c-1-0.3-2-0.6-3-0.9c-2-0.5-4.1-0.8-6.2-1.1c-2.1-0.2-4.2-0.4-6.3-0.4c-1,0-2.1,0-3.1,0.2
		c-1,0.1-2.1,0.3-3.1,0.5c-8.3,1.7-16.2,5.3-24.9,6.9c-0.1,0-0.2,0-0.3,0.1c0.1,0.8,0.2,1.6,0.3,2.3c0.2,1.9,0.2,3.8,0.1,5.8
		c-0.1,1.9-0.3,3.8-0.6,5.7c-0.6,3.8-1.7,7.4-3.2,10.9c-1.4,3.4-3.2,6.7-5.2,9.8c-1,1.5-2.1,3-3.2,4.5c-0.6,0.7-1.1,1.5-1.7,2.2
		l-0.9,1.1c-0.3,0.4-0.6,0.7-1,1.1l0,0c3.7,2.8,7.8,5,12.1,6.6c0.1-0.2,0.3-0.4,0.6-0.5c0.6-0.2,13.9-4.9,21.2-5.7
		c4.3-0.5,9.3,0.2,13.7,1c-0.9-1.1-2.1-2-3.6-2.6c-3.7-1.6-8.1-1.7-12.3-1.2c-2.1,0.3-4.1,0.8-6.3,1.2c-2.1,0.4-4.3,0.8-6.6,0.8
		c-1.1-0.1-2.3-0.2-3.5-0.7c-0.6-0.3-1.2-0.7-1.7-1.2c-0.2-0.3-0.4-0.6-0.6-0.9c-0.1-0.3-0.3-0.7-0.3-1c-0.2-0.7-0.2-1.3-0.1-1.9
		c0-0.6,0.2-1.3,0.6-2c0.4-0.7,1-1.2,1.7-1.5c0.7-0.3,1.4-0.3,2.1-0.2c0.5,0.1,0.9,0.6,0.8,1.1c-0.1,0.5-0.5,0.9-1,0.9l-0.1,0
		c-0.3,0-0.8,0-1,0.2c-0.3,0.1-0.5,0.3-0.6,0.6c-0.1,0.3-0.2,0.6-0.2,1.1c0,0.4,0,0.9,0.1,1.2c0.2,0.7,0.6,1.2,1.3,1.5
		c0.7,0.3,1.7,0.4,2.6,0.5c1.9,0,4-0.3,6.1-0.7c2-0.4,4.2-0.9,6.4-1.3c2.2-0.3,4.4-0.6,6.7-0.6c2.3,0,4.6,0.2,6.9,1
		c2.3,0.7,4.6,1.9,6.5,3.8c1,1,1.8,2.2,2.4,3.4C103.3,101,116.9,80.6,111.5,58.7z M20.6,23c-3.6,0-6.5-3-6.5-6.7
		c0-3.7,2.9-6.7,6.5-6.7c3.6,0,6.5,3,6.5,6.7C27.1,20.1,24.2,23,20.6,23z"/>
	<path class="st0" d="M78.8,112.1c-4.5-1-10.3-1.8-14.9-1.3c-5.8,0.6-15.8,3.9-19.4,5.1c4.1,1.2,8.4,1.9,13,1.9
		c7.4,0,14.8-1.6,21.7-4.5C79.1,112.8,79,112.4,78.8,112.1z"/>
</g>
</svg>
