<svg id="horse_group" xmlns="http://www.w3.org/2000/svg" width="42.3mm" height="37.77mm" viewBox="0 0 119.9 107.07">
  <defs>
    <style>
      #horse_group:hover {cursor: pointer; }
      #horse {cursor: pointer; }
      #horse:hover .cls-1 {fill: #036eb8; !important; }
      .cls-1 {
        fill: #231815;
      }
    </style>
  </defs>
  <title>horse</title>
  <g id="horse">
    <path class="cls-1" d="M99.23,71.9c7.78-.45,13.09-.54,16.7-.49q.6-1.87,1.11-3.81c-3.26.1-8.9.35-18.51.9-1.14.06-2.23.11-3.28.14q-1.34,1.71-2.66,3.43Q95.67,72.11,99.23,71.9Z"/>
    <path class="cls-1" d="M45.89,36.46c7,1.49,13,5.32,19.62,19.15,4.13,8.57,9,13.28,16.89,15.28l.53-.86,1.19-2C75,66.32,70.81,61.35,66.19,51.76,59.49,37.85,54.1,34.15,48.08,32.85c-5.69-1.21-20.38-.33-24.42-.05a27.26,27.26,0,0,1,.75,4.38C27.23,36.77,39.67,35.13,45.89,36.46Z"/>
    <path class="cls-1" d="M99.34,73.84c-2,.11-3.81.17-5.57.17-.89,0-1.75,0-2.6-.05l-2.76,3.72-1,1.31a3.53,3.53,0,0,0-.36.59,2.72,2.72,0,0,0-.29,1,.48.48,0,0,0,0,.12h0l0,.09.06.2.13.38L87.49,83l1,3.1c.64,2.07,1.37,4.11,2.06,6.16q1.74,5.16,3.64,10.25c9-5.64,16.56-16.11,21.09-29.13C111.78,73.31,106.69,73.42,99.34,73.84Z"/>
    <path class="cls-1" d="M83,94.91c-.69-2-1.34-4.12-2.09-6.16l-1.09-3.06-.55-1.53-.14-.39L79,83.58l0-.1-.06-.18a8.74,8.74,0,0,1-.36-1.49,10.4,10.4,0,0,1,.66-5.35,12,12,0,0,1,1.16-2.28l.85-1.39.12-.19C73.2,70.37,68,65.35,63.76,56.45c-6.35-13.16-11.7-16.68-18.28-18.09-5.92-1.27-18.45.41-20.92.76.36,5.47.13,12.68-.19,20.23-.14,3.28-.26,6.1-.22,7.67.16,6.47,5.25,6.66,5.83,6.66,2.87,0,4.6-1.7,4.86-4.78.38-4.38,3.07-5.05,3.18-5.07a1,1,0,0,1,1.17.73,1,1,0,0,1-.71,1.16c-.1,0-1.45.5-1.7,3.35-.36,4.1-2.9,6.55-6.8,6.55-2.81,0-7.6-1.8-7.77-8.55,0-1.64.07-4.35.22-7.8.37-8.82,1.07-25.24-1.57-28a1,1,0,1,1,1.4-1.34,4,4,0,0,1,.67,1c3-.22,19.21-1.3,25.55.05,7.9,1.7,13.35,7.29,19.46,20,4.53,9.41,8.27,14,17.18,15.34,1.51-2.63,2.94-5.3,4.28-8l-.34-1.92c-.17-1.34-.37-2.66-.49-4l-.15-2L84,51.46a3,3,0,0,1-2.16-5.66l6.6-3.41a45.1,45.1,0,0,1,1-6.64,36.83,36.83,0,0,1,1.23-4.19c.23-.69.53-1.4.84-2.11.18-.37.32-.71.52-1.09l.31-.58.18-.31.26-.44a5.41,5.41,0,1,1,9.1,5.86l0-.06v0l0,.08-.12.25c-.08.16-.17.4-.26.59-.16.43-.33.87-.47,1.34a24.46,24.46,0,0,0-.74,3,36.77,36.77,0,0,0-.59,6.36v1.63l.09,1.65c0,1.09.21,2.2.32,3.3s.35,2.21.52,3.32l.72,3.31h0l.17,1.21a4.3,4.3,0,0,1-1,3.37c-1.25,1.45-2.47,2.93-3.67,4.42l1.58-.08c10.16-.59,15.91-.83,19.11-.92a87,87,0,0,0,2.32-23.37c-1-27.53-10.22-45.52-47-41.78C37.92,4.05,1,21.87,0,41.94-1.26,68.47,45.69,108.33,80,107A27.09,27.09,0,0,0,86.41,106Q84.82,100.41,83,94.91ZM97.54,9.46A6.66,6.66,0,0,1,104,16.31a6.46,6.46,0,1,1-12.89,0A6.66,6.66,0,0,1,97.54,9.46Z"/>
  </g>
</svg>
