<svg id="Induction_group" xmlns="http://www.w3.org/2000/svg" width="40.37mm" height="40.11mm" viewBox="0 0 114.43 113.69">
  <defs>
    <style>
      #Induction_group:hover {cursor: pointer; }
      #Induction {cursor: pointer; }
      #Induction:hover .cls-1 {fill: #036eb8; !important; }
      .cls-1 {
        fill: #231815;
      }
    </style>
  </defs>
  <title>Induction</title>
  <g id="Induction">
    <path class="cls-1" d="M114.41,61.87C113.63,28.17,94.82-.84,72.8,0c-5.1.2-10.55,2-16.09,4.92a3.4,3.4,0,0,1,.22,4.39l-.09.11-.16.16c-.85.92-2.37,2.21-3.2,3.28a34.94,34.94,0,0,0-2.54,3c-1.38,2.24-2.66,4.27-2.51,5.66a7,7,0,0,0,.65,2.76A9.81,9.81,0,0,0,51.8,26a32.49,32.49,0,0,0,3.7,1.32l4.28,1.26c3.17,1,5.58,1.71,8.53,2.78a32.86,32.86,0,0,0-.67-8.44,1,1,0,0,1,.72-1.18,1,1,0,0,1,1.17.72A33.56,33.56,0,0,1,69,38.68a85.79,85.79,0,0,1-4.26,9.44,18,18,0,0,1-4.66,4.93,20.14,20.14,0,0,1-6,2.89,15.55,15.55,0,0,1-1.57.38l-.79.15c-.27.05-.59.08-.88.12l-.9.1c-.3,0-.57,0-.85,0a14.62,14.62,0,0,1-1.65-.06,30.27,30.27,0,0,1-6-1.15A56.19,56.19,0,0,1,36,53.66c-1.78-.69-3.46-1.37-5.28-2.24A3.74,3.74,0,0,1,34,44.68l.19.1,0,0A48.75,48.75,0,0,0,38.69,47a49,49,0,0,0,4.69,1.69,21.68,21.68,0,0,0,4.56.83,6,6,0,0,0,1,0,4,4,0,0,0,.49,0l.43-.06a3.84,3.84,0,0,0,.44-.06l.52-.14a10.14,10.14,0,0,0,1-.32,10,10,0,0,0,5.56-5.26,33.31,33.31,0,0,0,1.52-4l.32-1.08s0,0,0-.06c-.73-.34-1.53-.69-2.47-1.08l-4.21-1.7A41.9,41.9,0,0,1,48,33.65c-.4-.23-.82-.48-1.25-.78a13.09,13.09,0,0,1-1.27-.95,17.56,17.56,0,0,1-1.58-1.07,13,13,0,0,1-1.1-1.44,9.52,9.52,0,0,1-.86-1.6,9.69,9.69,0,0,1-.57-1.64A14,14,0,0,1,41.24,23c0-.49,0-1.11,0-1.66a10.73,10.73,0,0,1,.25-1.57,10,10,0,0,1,.38-1.43A12,12,0,0,1,42.38,17a26.89,26.89,0,0,1,1.86-3.72C22.47,30.62,2.39,60.68.26,76.61c-1.22,9.13,2,16.45,8,22.11a4.54,4.54,0,0,1,.25-3c2.07-4.18,13.93-24.35,21.13-24.1,3.06-.31,6.1,2.91,6.43,3.16.78.51,4.5,4.27,4.5,4.27.24.3,5.08,5.24,7.53,7.62h0a44.15,44.15,0,0,0,6.06-6.86,55.36,55.36,0,0,0,4.71-8.08,73.37,73.37,0,0,0,3.5-8.83c.48-1.51.93-3,1.31-4.57.2-.76.38-1.53.55-2.29s.32-1.57.42-2.19v-.08a4.63,4.63,0,1,1,9.15,1.48,1.35,1.35,0,0,1,0,.18c-.21,1-.41,1.84-.63,2.73s-.47,1.73-.72,2.58c-.5,1.71-1.07,3.39-1.67,5.06a82.73,82.73,0,0,1-4.3,9.75,64,64,0,0,1-5.78,9.09,51.61,51.61,0,0,1-7.59,7.92c-.53.45-5.73,4-5.94,4.13-2.53,2-9.4,4.28-9.69,4.37a1,1,0,0,1-.3,0,1,1,0,0,1-.31-1.9,63.08,63.08,0,0,0,6.48-2.53c-1.14-.71-3.51-2.67-8.22-8.16a36,36,0,0,1-2.5-2.84l-1.06-1.31c-.31-.41-.62-.76-.93-1.11s-.61-.62-.9-.94a1.33,1.33,0,0,0-1.61-.38s-5.28,4.19-7.23,8.56c-1.17,1.89-3.66,7.78-4.76,9.68l0,0a4.23,4.23,0,0,1-3.43,2.1c11.41,7.77,29,11.42,46.51,11.42C90.23,113.69,115.22,96.52,114.41,61.87Zm-32.06,33c-.93,4.23-4.82,5.56-5.92,6.09a23.59,23.59,0,0,1-6.17,1.41,58.38,58.38,0,0,1-15.8-.94,34.22,34.22,0,0,1-5.64-1.76,34.56,34.56,0,0,1-9,5.18,1,1,0,0,1-.65-1.83,33.41,33.41,0,0,0,9.24-5.49,81.49,81.49,0,0,0,7-4.77c2.56-2.24,3.24-3,3.24-3,1.21,0,4.33.2,5.59.09,4-.13,4.1-.5,5.42-1.62.92-.79.16-8.67,3.86-15.81A43.58,43.58,0,0,1,83.65,60.17c1.1-1.06,3.56-4-3-10.44-3.07-3.56-11.41-6.53-11.9-6.8l3.6-9a64.77,64.77,0,0,0,.9-11.65,1,1,0,0,1,1.94-.18,62.68,62.68,0,0,1-.52,11.75c.87.34,1.73.68,2.59,1.05a72.17,72.17,0,0,1,8.55,4.32,35,35,0,0,1,8.26,6.47,16.28,16.28,0,0,1,3.39,5.74,10.9,10.9,0,0,1,.45,2c0,.35.08.7.11,1s0,.74,0,1.11a7.51,7.51,0,0,1-.41,2.16q-.18.52-.39,1c-.14.33-.32.6-.48.9s-.35.57-.54.84a8,8,0,0,1-.59.68,8.21,8.21,0,0,1-1.22,1.16A19,19,0,0,1,92,63.91a46.87,46.87,0,0,0-4.15,2.36c-2.46,1.57-7.47,7.1-8,10.83-1.22,5.83.09,8.08.48,9.46C80.23,86.56,82.68,91.83,82.35,94.91Zm8.42,1.94a6,6,0,1,1,6.35-6A6.18,6.18,0,0,1,90.77,96.85Zm8.06-21.63A6.19,6.19,0,1,1,104.94,69,6.15,6.15,0,0,1,98.83,75.22Z"/>
    <path class="cls-1" d="M90.61,61.55a3.08,3.08,0,1,0-3.08-3.08A3.08,3.08,0,0,0,90.61,61.55Zm0-4.21a1.14,1.14,0,1,1-1.13,1.13A1.13,1.13,0,0,1,90.61,57.34Z"/>
    <path class="cls-1" d="M75.39,86.81a3,3,0,1,0,3.08,3A3,3,0,0,0,75.39,86.81Zm0,4a1.06,1.06,0,1,1,1.13-1A1.09,1.09,0,0,1,75.39,90.86Z"/>
  </g>
</svg>
