<svg id="olympic_group" xmlns="http://www.w3.org/2000/svg" width="95.74mm" height="44.1mm" viewBox="0 0 271.4 125">
  <defs>
    <style>
      .cls-1 {
        fill: none;
      }

      .cls-2 {
        fill: #0b7cb5;
      }

      .cls-3 {
        fill: #df3448;
      }

      .cls-4 {
        fill: #19863b;
      }

      .cls-5 {
        fill: #f2ac24;
      }
    </style>
  </defs>
  <title>olympic대지 1</title>
  <g id="olympic">
    <path class="cls-1" d="M170.4,49.1A35.37,35.37,0,0,0,147.9,76,35.37,35.37,0,0,0,170.4,49.1Z"/>
    <path class="cls-1" d="M170.9,40.9a35.25,35.25,0,0,0-70.4-.1,42.94,42.94,0,0,1,31.3,37.1c1.3.1,2.6.2,3.9.2a31.08,31.08,0,0,0,4.3-.3A43,43,0,0,1,170.9,40.9Z"/>
    <path class="cls-1" d="M185.9,47c-1.1-.1-2.2-.2-3.4-.2a31.08,31.08,0,0,0-4.3.3,42.87,42.87,0,0,1-31,36.9,35.26,35.26,0,0,0,70.4.3A43,43,0,0,1,185.9,47Z"/>
    <path class="cls-1" d="M193.8,48.7a35.21,35.21,0,0,0,23.6,27.5A35.51,35.51,0,0,0,193.8,48.7Z"/>
    <path class="cls-1" d="M77.6,48.9A35.3,35.3,0,0,0,54.5,76.2,35.48,35.48,0,0,0,77.6,48.9Z"/>
    <path class="cls-1" d="M78,40.8A35.23,35.23,0,1,0,42.9,78.1c1.3,0,2.5-.1,3.7-.2A42.78,42.78,0,0,1,78,40.8Z"/>
    <path class="cls-1" d="M93.1,47.1c-1.3-.1-2.6-.2-3.9-.2s-2.5.1-3.7.2A43,43,0,0,1,54,84.2a35.26,35.26,0,0,0,70.4-.1A42.93,42.93,0,0,1,93.1,47.1Z"/>
    <path class="cls-1" d="M101,48.9a35.43,35.43,0,0,0,22.9,27.2A35.43,35.43,0,0,0,101,48.9Z"/>
    <path class="cls-1" d="M225.2,77.9c1.1.1,2.2.2,3.3.2a35.3,35.3,0,1,0-35.2-37.5A42.92,42.92,0,0,1,225.2,77.9Z"/>
    <path class="cls-2" d="M85.5,47.1a34.88,34.88,0,0,0-7.9,1.8A35.12,35.12,0,0,1,54.4,76.1a40.47,40.47,0,0,0-.5,6,14.77,14.77,0,0,0,.1,2.1A43,43,0,0,0,85.5,47.1Z"/>
    <path class="cls-2" d="M46.6,77.9c-1.2.1-2.5.2-3.7.2A35.3,35.3,0,1,1,78,40.8a36.76,36.76,0,0,1,7.5-1.3A42.81,42.81,0,1,0,42.8,85.6c1.2,0,2.4-.1,3.6-.2-.1-1.1-.1-2.2-.1-3.4A29.34,29.34,0,0,1,46.6,77.9Z"/>
    <path d="M101,48.9a34.88,34.88,0,0,0-7.9-1.8,43.17,43.17,0,0,0,31.3,37.1c0-.7.1-1.3.1-2a40.71,40.71,0,0,0-.5-6.1A35.37,35.37,0,0,1,101,48.9Z"/>
    <path d="M140,77.8a30,30,0,0,1-4.3.3c-1.3,0-2.6-.1-3.9-.2.1,1.4.2,2.8.2,4.3,0,1.1-.1,2.2-.1,3.4,1.3.1,2.5.2,3.8.2s2.8-.1,4.2-.2c-.1-1.1-.1-2.2-.1-3.3A33.14,33.14,0,0,1,140,77.8Z"/>
    <path d="M178.3,47.2a35,35,0,0,0-7.9,1.9A35.56,35.56,0,0,1,147.9,76a31.79,31.79,0,0,0-.6,6.2,12.1,12.1,0,0,0,.1,1.9A43,43,0,0,0,178.3,47.2Z"/>
    <path d="M135.7,7.6A35.31,35.31,0,0,1,170.9,41a36.83,36.83,0,0,1,7.5-1.4A42.83,42.83,0,0,0,93,39.5a45.17,45.17,0,0,1,7.5,1.3A35.21,35.21,0,0,1,135.7,7.6Z"/>
    <path class="cls-3" d="M228.6,0a42.85,42.85,0,0,0-42.7,39.5,45.15,45.15,0,0,1,7.5,1.2,35.28,35.28,0,1,1,35.2,37.5c-1.1,0-2.2-.1-3.3-.2.1,1.4.2,2.8.2,4.2,0,1.1-.1,2.3-.1,3.4,1.1.1,2.2.1,3.3.1A42.85,42.85,0,1,0,228.6,0Z"/>
    <path class="cls-3" d="M193.8,48.7a39.53,39.53,0,0,0-7.9-1.7,43.08,43.08,0,0,0,31.8,37.3c0-.7.1-1.4.1-2.2a38.08,38.08,0,0,0-.5-5.9A35.27,35.27,0,0,1,193.8,48.7Z"/>
    <path class="cls-4" d="M182.6,117.4A35.31,35.31,0,0,1,147.4,84a36.83,36.83,0,0,1-7.5,1.4,42.83,42.83,0,0,0,85.4,0,45.15,45.15,0,0,1-7.5-1.2A35.28,35.28,0,0,1,182.6,117.4Z"/>
    <path class="cls-4" d="M170.4,49.1a31.79,31.79,0,0,0,.6-6.2,12.1,12.1,0,0,0-.1-1.9,43,43,0,0,0-31,36.9,35,35,0,0,0,7.9-1.9A35.36,35.36,0,0,1,170.4,49.1Z"/>
    <path class="cls-4" d="M193.8,48.7a35.36,35.36,0,0,1,23.6,27.5,39.53,39.53,0,0,0,7.9,1.7,43.08,43.08,0,0,0-31.8-37.3c0,.7-.1,1.4-.1,2.2A28.8,28.8,0,0,0,193.8,48.7Z"/>
    <path class="cls-4" d="M178.3,47.2a30,30,0,0,1,4.3-.3c1.1,0,2.2.1,3.4.2-.1-1.4-.2-2.8-.2-4.2,0-1.1.1-2.3.1-3.4-1.1-.1-2.2-.1-3.3-.1-1.4,0-2.8.1-4.2.2.1,1.1.1,2.2.1,3.3A21,21,0,0,1,178.3,47.2Z"/>
    <path d="M171,42.8a31.79,31.79,0,0,1-.6,6.2,35,35,0,0,1,7.9-1.9c.1-1.4.2-2.9.2-4.3,0-1.1-.1-2.2-.1-3.3a45.21,45.21,0,0,0-7.5,1.4A12.75,12.75,0,0,1,171,42.8Z"/>
    <path class="cls-4" d="M147.3,82.2a31.79,31.79,0,0,1,.6-6.2,35,35,0,0,1-7.9,1.9c-.1,1.4-.2,2.9-.2,4.3,0,1.1.1,2.2.1,3.3a45.21,45.21,0,0,0,7.5-1.4A12.75,12.75,0,0,1,147.3,82.2Z"/>
    <path class="cls-4" d="M185.9,47a34.74,34.74,0,0,1,7.9,1.7,38.08,38.08,0,0,1-.5-5.9,17,17,0,0,1,.1-2.2,45.15,45.15,0,0,0-7.5-1.2c-.1,1.1-.1,2.2-.1,3.4A28.74,28.74,0,0,0,185.9,47Z"/>
    <path class="cls-3" d="M225.2,77.9a34.74,34.74,0,0,1-7.9-1.7,38.08,38.08,0,0,1,.5,5.9,17,17,0,0,1-.1,2.2,45.15,45.15,0,0,0,7.5,1.2c.1-1.1.1-2.2.1-3.4A19.67,19.67,0,0,0,225.2,77.9Z"/>
    <path class="cls-5" d="M100.5,40.8c0,.7-.1,1.3-.1,2a40.71,40.71,0,0,0,.5,6.1,35.28,35.28,0,0,1,22.9,27.2,34.88,34.88,0,0,0,7.9,1.8A42.93,42.93,0,0,0,100.5,40.8Z"/>
    <path class="cls-5" d="M85.5,47.1c1.2-.1,2.5-.2,3.7-.2s2.6.1,3.9.2c-.1-1.4-.2-2.8-.2-4.3,0-1.1.1-2.2.1-3.4-1.3-.1-2.5-.2-3.8-.2s-2.4.1-3.6.2c.1,1.1.1,2.2.1,3.4C85.7,44.3,85.6,45.7,85.5,47.1Z"/>
    <path class="cls-5" d="M89.2,117.4A35.28,35.28,0,0,1,54,84.2a36.76,36.76,0,0,1-7.5,1.3,42.83,42.83,0,0,0,85.4,0,45.17,45.17,0,0,1-7.5-1.3A35.21,35.21,0,0,1,89.2,117.4Z"/>
    <path class="cls-5" d="M77.6,48.9a40.47,40.47,0,0,0,.5-6,14.77,14.77,0,0,0-.1-2.1A42.78,42.78,0,0,0,46.6,77.9a34.88,34.88,0,0,0,7.9-1.8A35,35,0,0,1,77.6,48.9Z"/>
    <path class="cls-2" d="M78.1,42.8a39.38,39.38,0,0,1-.5,6A34.88,34.88,0,0,1,85.5,47c.1-1.4.2-2.8.2-4.2,0-1.1-.1-2.3-.1-3.4a45.17,45.17,0,0,0-7.5,1.3Z"/>
    <path class="cls-5" d="M53.9,82.2a39.38,39.38,0,0,1,.5-6A34.88,34.88,0,0,1,46.5,78c-.1,1.4-.2,2.8-.2,4.2,0,1.1.1,2.3.1,3.4a45.17,45.17,0,0,0,7.5-1.3Z"/>
    <path class="cls-5" d="M93.1,47.1a34.88,34.88,0,0,1,7.9,1.8,40.71,40.71,0,0,1-.5-6.1,13.4,13.4,0,0,1,.1-2,36.76,36.76,0,0,0-7.5-1.3c-.1,1.1-.1,2.2-.1,3.4A19.67,19.67,0,0,0,93.1,47.1Z"/>
    <path d="M131.8,77.9a34.88,34.88,0,0,1-7.9-1.8,40.71,40.71,0,0,1,.5,6.1,13.4,13.4,0,0,1-.1,2,36.76,36.76,0,0,0,7.5,1.3c.1-1.1.1-2.2.1-3.4A19.67,19.67,0,0,0,131.8,77.9Z"/>
  </g>
</svg>
