<?xml version="1.0" encoding="utf-8"?>
<!-- Generator: Adobe Illustrator 22.0.0, SVG Export Plug-In . SVG Version: 6.00 Build 0)  -->
<svg version="1.1" id="olympic_x5F_group" xmlns="http://www.w3.org/2000/svg" xmlns:xlink="http://www.w3.org/1999/xlink" x="0px"
	 y="0px" viewBox="0 0 271.4 125" style="enable-background:new 0 0 271.4 125;" xml:space="preserve">
<style type="text/css">
	.st0{fill:none;}
	.st1{fill:#0B7CB5;}
	.st2{fill:#DF3448;}
	.st3{fill:#19863B;}
	.st4{fill:#F2AC24;}
</style>
<g id="olympic">
	<path class="st0" d="M170.4,49.1c-11.6,4.3-20.3,14.5-22.5,26.9C159.5,71.7,168.2,61.5,170.4,49.1z"/>
	<path class="st0" d="M170.9,40.9c-1-18.6-16.4-33.4-35.2-33.4c-18.8,0-34.2,14.7-35.2,33.3c16.8,4.6,29.5,19.2,31.3,37.1
		c1.3,0.1,2.6,0.2,3.9,0.2c1.4,0,2.9-0.1,4.3-0.3C141.7,60.2,154.3,45.7,170.9,40.9z"/>
	<path class="st0" d="M185.9,47c-1.1-0.1-2.2-0.2-3.4-0.2c-1.4,0-2.9,0.1-4.3,0.3c-1.8,17.7-14.3,32.2-31,36.9
		c1,18.6,16.4,33.4,35.2,33.4c18.7,0,34.1-14.7,35.2-33.1C200.7,79.9,187.7,65.1,185.9,47z"/>
	<path class="st0" d="M193.8,48.7c2.2,12.9,11.4,23.5,23.6,27.5C215.2,63.4,206,52.8,193.8,48.7z"/>
	<path class="st0" d="M77.6,48.9c-11.9,4.2-21,14.6-23.1,27.3C66.4,72,75.4,61.6,77.6,48.9z"/>
	<path class="st0" d="M78,40.8C77,22.3,61.6,7.6,42.8,7.6C23.4,7.6,7.6,23.4,7.6,42.8c0,19.4,15.8,35.3,35.3,35.3
		c1.3,0,2.5-0.1,3.7-0.2C48.3,60,61.1,45.4,78,40.8z"/>
	<path class="st0" d="M93.1,47.1c-1.3-0.1-2.6-0.2-3.9-0.2c-1.3,0-2.5,0.1-3.7,0.2C83.7,65,70.9,79.6,54,84.2
		c1.1,18.5,16.4,33.2,35.2,33.2c18.8,0,34.2-14.7,35.2-33.3C107.6,79.5,94.9,64.9,93.1,47.1z"/>
	<path class="st0" d="M101,48.9c2.2,12.6,11.1,23,22.9,27.2C121.7,63.5,112.8,53.1,101,48.9z"/>
	<path class="st0" d="M225.2,77.9c1.1,0.1,2.2,0.2,3.3,0.2c19.4,0,35.3-15.8,35.3-35.3c0-19.4-15.8-35.3-35.3-35.3
		c-18.7,0-34.1,14.7-35.2,33.1C210.5,45.1,223.5,59.9,225.2,77.9z"/>
	<path class="st1" d="M85.5,47.1c-2.7,0.3-5.4,0.9-7.9,1.8C75.4,61.6,66.4,72,54.4,76.1c-0.3,2-0.5,4-0.5,6c0,0.7,0,1.4,0.1,2.1
		C70.9,79.6,83.7,65,85.5,47.1z"/>
	<path class="st1" d="M46.6,77.9c-1.2,0.1-2.5,0.2-3.7,0.2c-19.4,0-35.3-15.8-35.3-35.3c0-19.4,15.8-35.3,35.3-35.3
		C61.6,7.6,77,22.3,78,40.8c2.4-0.7,4.9-1.1,7.5-1.3C83.8,17.4,65.3,0,42.8,0C19.2,0,0,19.2,0,42.8c0,23.6,19.2,42.8,42.8,42.8
		c1.2,0,2.4-0.1,3.6-0.2c-0.1-1.1-0.1-2.2-0.1-3.4C46.3,80.7,46.4,79.3,46.6,77.9z"/>
	<path d="M101,48.9c-2.5-0.9-5.2-1.5-7.9-1.8c1.8,17.8,14.5,32.4,31.3,37.1c0-0.7,0.1-1.3,0.1-2c0-2.1-0.2-4.1-0.5-6.1
		C112.1,71.9,103.2,61.5,101,48.9z"/>
	<path d="M140,77.8c-1.4,0.2-2.8,0.3-4.3,0.3c-1.3,0-2.6-0.1-3.9-0.2c0.1,1.4,0.2,2.8,0.2,4.3c0,1.1-0.1,2.2-0.1,3.4
		c1.3,0.1,2.5,0.2,3.8,0.2c1.4,0,2.8-0.1,4.2-0.2c-0.1-1.1-0.1-2.2-0.1-3.3C139.8,80.7,139.8,79.3,140,77.8z"/>
	<path d="M178.3,47.2c-2.7,0.3-5.4,1-7.9,1.9c-2.2,12.4-11,22.6-22.5,26.9c-0.4,2-0.6,4.1-0.6,6.2c0,0.6,0,1.3,0.1,1.9
		C164,79.3,176.6,64.8,178.3,47.2z"/>
	<path d="M135.7,7.6c18.8,0,34.2,14.8,35.2,33.4c2.4-0.7,4.9-1.2,7.5-1.4C176.7,17.4,158.2,0,135.7,0c-22.5,0-41,17.4-42.7,39.5
		c2.6,0.2,5.1,0.7,7.5,1.3C101.5,22.3,116.9,7.6,135.7,7.6z"/>
	<path class="st2" d="M228.6,0c-22.5,0-41,17.4-42.7,39.5c2.6,0.2,5.1,0.6,7.5,1.2c1.1-18.4,16.5-33.1,35.2-33.1
		c19.4,0,35.3,15.8,35.3,35.3c0,19.4-15.8,35.3-35.3,35.3c-1.1,0-2.2-0.1-3.3-0.2c0.1,1.4,0.2,2.8,0.2,4.2c0,1.1-0.1,2.3-0.1,3.4
		c1.1,0.1,2.2,0.1,3.3,0.1c23.6,0,42.8-19.2,42.8-42.8C271.4,19.2,252.2,0,228.6,0z"/>
	<path class="st2" d="M193.8,48.7c-2.5-0.8-5.1-1.4-7.9-1.7c1.8,18,14.7,32.8,31.8,37.3c0-0.7,0.1-1.4,0.1-2.2c0-2-0.2-4-0.5-5.9
		C205.2,72.2,196,61.6,193.8,48.7z"/>
	<path class="st3" d="M182.6,117.4c-18.8,0-34.2-14.8-35.2-33.4c-2.4,0.7-4.9,1.2-7.5,1.4c1.7,22.1,20.2,39.5,42.7,39.5
		c22.5,0,41-17.4,42.7-39.5c-2.6-0.2-5.1-0.6-7.5-1.2C216.7,102.8,201.3,117.4,182.6,117.4z"/>
	<path class="st3" d="M170.4,49.1c0.4-2,0.6-4.1,0.6-6.2c0-0.6,0-1.3-0.1-1.9c-16.6,4.7-29.2,19.2-31,36.9c2.7-0.3,5.4-1,7.9-1.9
		C150.1,63.5,158.8,53.3,170.4,49.1z"/>
	<path class="st3" d="M193.8,48.7c12.2,4.1,21.4,14.6,23.6,27.5c2.5,0.8,5.1,1.4,7.9,1.7c-1.8-18-14.7-32.8-31.8-37.3
		c0,0.7-0.1,1.4-0.1,2.2C193.3,44.8,193.5,46.8,193.8,48.7z"/>
	<path class="st3" d="M178.3,47.2c1.4-0.2,2.8-0.3,4.3-0.3c1.1,0,2.2,0.1,3.4,0.2c-0.1-1.4-0.2-2.8-0.2-4.2c0-1.1,0.1-2.3,0.1-3.4
		c-1.1-0.1-2.2-0.1-3.3-0.1c-1.4,0-2.8,0.1-4.2,0.2c0.1,1.1,0.1,2.2,0.1,3.3C178.6,44.3,178.5,45.7,178.3,47.2z"/>
	<path d="M171,42.8c0,2.1-0.2,4.2-0.6,6.2c2.5-0.9,5.2-1.6,7.9-1.9c0.1-1.4,0.2-2.9,0.2-4.3c0-1.1-0.1-2.2-0.1-3.3
		c-2.6,0.3-5.1,0.7-7.5,1.4C171,41.6,171,42.2,171,42.8z"/>
	<path class="st3" d="M147.3,82.2c0-2.1,0.2-4.2,0.6-6.2c-2.5,0.9-5.2,1.6-7.9,1.9c-0.1,1.4-0.2,2.9-0.2,4.3c0,1.1,0.1,2.2,0.1,3.3
		c2.6-0.3,5.1-0.7,7.5-1.4C147.3,83.4,147.3,82.8,147.3,82.2z"/>
	<path class="st3" d="M185.9,47c2.7,0.3,5.4,0.8,7.9,1.7c-0.3-1.9-0.5-3.9-0.5-5.9c0-0.7,0-1.4,0.1-2.2c-2.4-0.6-4.9-1-7.5-1.2
		c-0.1,1.1-0.1,2.2-0.1,3.4C185.7,44.3,185.8,45.7,185.9,47z"/>
	<path class="st2" d="M225.2,77.9c-2.7-0.3-5.4-0.8-7.9-1.7c0.3,1.9,0.5,3.9,0.5,5.9c0,0.7,0,1.4-0.1,2.2c2.4,0.6,4.9,1,7.5,1.2
		c0.1-1.1,0.1-2.2,0.1-3.4C225.4,80.7,225.4,79.3,225.2,77.9z"/>
	<path class="st4" d="M100.5,40.8c0,0.7-0.1,1.3-0.1,2c0,2.1,0.2,4.1,0.5,6.1c11.8,4.2,20.7,14.5,22.9,27.2c2.5,0.9,5.2,1.5,7.9,1.8
		C130,60.1,117.3,45.5,100.5,40.8z"/>
	<path class="st4" d="M85.5,47.1c1.2-0.1,2.5-0.2,3.7-0.2c1.3,0,2.6,0.1,3.9,0.2c-0.1-1.4-0.2-2.8-0.2-4.3c0-1.1,0.1-2.2,0.1-3.4
		c-1.3-0.1-2.5-0.2-3.8-0.2c-1.2,0-2.4,0.1-3.6,0.2c0.1,1.1,0.1,2.2,0.1,3.4C85.7,44.3,85.6,45.7,85.5,47.1z"/>
	<path class="st4" d="M89.2,117.4c-18.8,0-34.1-14.7-35.2-33.2c-2.4,0.7-4.9,1.1-7.5,1.3c1.7,22.1,20.2,39.5,42.7,39.5
		c22.5,0,41-17.4,42.7-39.5c-2.6-0.2-5.1-0.7-7.5-1.3C123.4,102.7,108,117.4,89.2,117.4z"/>
	<path class="st4" d="M77.6,48.9c0.3-2,0.5-4,0.5-6c0-0.7,0-1.4-0.1-2.1C61.1,45.4,48.3,60,46.6,77.9c2.7-0.3,5.4-0.9,7.9-1.8
		C56.6,63.4,65.7,53,77.6,48.9z"/>
	<path class="st1" d="M78.1,42.8c0,2-0.2,4.1-0.5,6c2.5-0.9,5.2-1.5,7.9-1.8c0.1-1.4,0.2-2.8,0.2-4.2c0-1.1-0.1-2.3-0.1-3.4
		c-2.6,0.2-5.1,0.7-7.5,1.3C78.1,41.5,78.1,42.2,78.1,42.8z"/>
	<path class="st4" d="M53.9,82.2c0-2,0.2-4.1,0.5-6c-2.5,0.9-5.2,1.5-7.9,1.8c-0.1,1.4-0.2,2.8-0.2,4.2c0,1.1,0.1,2.3,0.1,3.4
		c2.6-0.2,5.1-0.7,7.5-1.3C53.9,83.5,53.9,82.8,53.9,82.2z"/>
	<path class="st4" d="M93.1,47.1c2.7,0.3,5.4,0.9,7.9,1.8c-0.3-2-0.5-4-0.5-6.1c0-0.7,0-1.3,0.1-2c-2.4-0.7-4.9-1.1-7.5-1.3
		c-0.1,1.1-0.1,2.2-0.1,3.4C92.9,44.3,92.9,45.7,93.1,47.1z"/>
	<path d="M131.8,77.9c-2.7-0.3-5.4-0.9-7.9-1.8c0.3,2,0.5,4,0.5,6.1c0,0.7,0,1.3-0.1,2c2.4,0.7,4.9,1.1,7.5,1.3
		c0.1-1.1,0.1-2.2,0.1-3.4C132,80.7,132,79.3,131.8,77.9z"/>
</g>
</svg>
