<svg id="soccer_Group" xmlns="http://www.w3.org/2000/svg" width="35.28mm" height="41.47mm" viewBox="0 0 100.02 117.56">
  <defs>
    <style>
      #soccer_Group:hover {cursor: pointer; }
      #soccer {cursor: pointer; }
      #soccer:hover .cls-1 {fill: #036eb8; !important; }
      .cls-1 {
        fill: #231815;
      }
    </style>
  </defs>
  <title>soccer</title>
  <g id="soccer">
    <path class="cls-1" d="M55.58,94c-3,0-5.53,2.93-5.53,6.53s2.48,6.54,5.53,6.54,5.52-2.94,5.52-6.54S58.62,94,55.58,94Z"/>
    <path class="cls-1" d="M99.42,61.53C98.38,47.78,96,35.18,92.19,25a24.7,24.7,0,0,1-5.93,5.66,29.72,29.72,0,0,1-5.74,3c-1,.45-2,.72-3,1.07s-2,.57-3.07.75a44.5,44.5,0,0,1-5.48.74,10.77,10.77,0,0,1-.45,1.32c-2.56,5.89-5.24,11.74-8,17.61-.64,1.35-1.29,2.69-2,4l.26.08a38.31,38.31,0,0,1,7.35,3,26.49,26.49,0,0,1,6.75,5.16,19.8,19.8,0,0,1,1.46,1.7c.43.62.86,1.24,1.28,1.87s.71,1.35,1,2c.16.34.35.69.48,1l.34,1a32.82,32.82,0,0,1,1.76,7.79,46.75,46.75,0,0,1,.21,7.55,62.33,62.33,0,0,1-.77,7.28c-.19,1.2-.41,2.39-.67,3.57s-.52,2.31-.91,3.65a4.8,4.8,0,0,1-9.3-2.35l.06-.25c.19-.84.4-2,.56-3s.31-2.06.42-3.09a53.57,53.57,0,0,0,.33-6.16A28.82,28.82,0,0,0,67.29,79l-.24-.59c-.09-.18-.19-.31-.28-.46-.2-.3-.34-.62-.55-.9s-.46-.55-.68-.83a8.2,8.2,0,0,0-.78-.78,15,15,0,0,0-4-2.62,27.31,27.31,0,0,0-5.15-1.72c-.92-.21-1.85-.38-2.78-.51l-.37,0c-.41.67-.82,1.34-1.24,2A64.78,64.78,0,0,1,45,80.92a39.59,39.59,0,0,1-4,4,20,20,0,0,1-5.39,3.39,14.53,14.53,0,0,1-3.45.86,13.64,13.64,0,0,1-1.81.11A11.36,11.36,0,0,1,28.13,89a14.56,14.56,0,0,1-3.24-1.29,23.46,23.46,0,0,1-2.45-1.54,44.16,44.16,0,0,1-7.63-7l-.1-.11a3.81,3.81,0,0,1,5.46-5.3,42,42,0,0,0,3.29,2.84A35.32,35.32,0,0,0,27,78.91a9.86,9.86,0,0,0,3,1.24c.09,0,.07,0,.11,0s0,0,.14,0a4.13,4.13,0,0,0,.61-.13,5.52,5.52,0,0,0,1.2-.49c1.63-.86,3.28-2.83,4.72-5.08a53.56,53.56,0,0,0,3.92-7.55,153.46,153.46,0,0,0,6-17.08c1.28-4.32,2.47-8.7,3.6-13.11a28.32,28.32,0,0,0-9.14,3,15.9,15.9,0,0,0-6.48,6.25A21,21,0,0,0,33.06,50a20.11,20.11,0,0,0-.52,2.2c0,.38-.15.75-.2,1.11l-.08.54c0,.15,0,.4-.09.39a4,4,0,1,1-8,1c-.05-.49-.05-.73-.06-1.06s0-.61,0-.91c0-.59.06-1.18.11-1.76a25,25,0,0,1,.61-3.42,21,21,0,0,1,2.76-6.41,21.52,21.52,0,0,1,4.67-5.16,25.2,25.2,0,0,1,5.81-3.41A37.77,37.77,0,0,1,50.44,30.4c2.05-.15,4.09-.19,6.11-.14s4.11.24,5.88.27a45.1,45.1,0,0,0,10.82-.83c.88-.15,1.71-.44,2.56-.65s1.67-.52,2.45-.89a19.52,19.52,0,0,0,4.4-2.53,18.69,18.69,0,0,0,6-7.72c.06-.14.11-.29.17-.43C83.27,6.64,75.49,0,65.42,0,39.13,0,0,38.78,0,71.25c0,28.82,42.36,46.31,68.66,46.31C97.8,117.56,101.86,93.9,99.42,61.53ZM61.65,14.92a6.56,6.56,0,1,1-6.54,6.56A6.55,6.55,0,0,1,61.65,14.92ZM55.58,110c-4.66,0-8.44-4.24-8.44-9.45s3.78-9.45,8.44-9.45S64,95.36,64,100.57,60.23,110,55.58,110Z"/>
  </g>
</svg>
