<?xml version="1.0" encoding="utf-8"?>
<!-- Generator: Adobe Illustrator 22.0.0, SVG Export Plug-In . SVG Version: 6.00 Build 0)  -->
<svg version="1.1" id="Swim_x5F_Group" xmlns="http://www.w3.org/2000/svg" xmlns:xlink="http://www.w3.org/1999/xlink" x="0px"
	 y="0px" viewBox="0 0 123.6 110.3" style="enable-background:new 0 0 123.6 110.3;" xml:space="preserve">
<style type="text/css">
	.st0{fill:#036EB8;}
</style>
<g id="swim">
	<path class="st0" d="M110.5,61.3c-4.3,1.8-8.4,4.1-12.5,6.5C89.9,72.8,82,78.1,73.7,83c-4.2,2.4-8.5,4.7-12.9,6.6
		c-4.5,1.9-9.2,3.5-14.1,4.2c-4.9,0.7-9.8,0.6-14.7,0.3c-2.9-0.2-5.8-0.6-8.7-1c1.5,1.5,3.1,3,4.8,4.4c2.5,0.2,5,0.4,7.5,0.4
		c3.4,0,6.8-0.3,10.1-0.9c6.8-1.2,13.4-3.3,19.9-5.9c6.5-2.6,12.9-5.5,19.7-7.8c6.7-2.3,14-3.9,21.7-3.3l0,0c0.5,0,1,0.2,1.4,0.5
		c5.9-7.1,10.5-14.8,13-22.2C117.8,58.5,114.1,59.8,110.5,61.3z"/>
	<path class="st0" d="M20.8,66.3c1.3-2,2.4-4.1,3.2-6.4c0.8-2.3,1.4-4.6,1.7-7c0.3-2.4,0.5-4.8,0.4-7.2c-0.1-2.4-0.5-4.8-1.2-7
		c-0.7-2.2-1.7-4.4-3.1-6.2c-1.4-1.7-3.3-3-5.4-3.4c-2.1-0.3-4.4,0.2-6.4,1.4c-2,1.2-3.7,3-5.1,4.9C3,38,1.6,41.1,0.7,44.2
		c0.5,3.9,1.1,7.9,1.9,11.9c1.1,5.6,3.1,11.2,5.8,16.5c0.5,0.2,1,0.3,1.5,0.3c2.1,0.2,4.3-0.5,6.2-1.7
		C17.9,70.1,19.5,68.3,20.8,66.3z"/>
	<path class="st0" d="M110.7,53.9c-4.9,1-9.6,2.8-14.2,4.9c-4.6,2.1-9.1,4.4-13.7,6.7c-4.6,2.3-9.2,4.4-13.9,6.5
		c-4.8,2-9.7,3.6-14.8,4.8c-5,1.1-10.1,2.1-15.3,2.6c-5.1,0.5-10.3,0.9-15.4,1c-2.6,0-5.2,0-7.7-0.1c-0.9,0-1.9-0.1-2.8-0.1
		c2.1,3.2,4.4,6.2,6.9,9.1c4.1,0.6,8.3,1,12.4,1.2c4.7,0.2,9.4,0.2,13.9-0.4c2.3-0.3,4.5-0.9,6.7-1.5c2.2-0.7,4.4-1.5,6.5-2.4
		c4.3-1.8,8.5-4,12.6-6.4c8.2-4.7,16.1-10,24.4-14.9c2.1-1.2,4.2-2.4,6.3-3.6c2.1-1.1,4.3-2.3,6.5-3.2c2.2-1,4.6-1.8,7-2.4
		c2-0.5,4.2-0.8,6.4-0.7c0.1-0.5,0.3-1.1,0.4-1.6C118.7,52.9,114.6,53.1,110.7,53.9z"/>
	<path class="st0" d="M117.1,40.5C117.1,40.5,117.1,40.5,117.1,40.5C117.1,40.5,117.1,40.5,117.1,40.5
		C117.1,40.5,117.1,40.5,117.1,40.5z"/>
	<path class="st0" d="M3.2,34.2C4.6,32,6.4,30,8.7,28.4c2.3-1.5,5.2-2.5,8.1-2.1c2.9,0.4,5.5,2.1,7.4,4.1c1.9,2.1,3.1,4.6,4,7.2
		c1.8,5.2,1.9,10.6,1.2,15.9c-0.9,5.2-2.6,10.4-5.8,14.8c-1.6,2.2-3.5,4.2-5.9,5.7c-1.4,0.8-2.9,1.5-4.6,1.7
		c3.4,0.3,6.8,0.6,10.2,0.6c5,0.1,10.1,0.1,15.1-0.3c5-0.4,10-1.1,14.9-2.1c2.4-0.6,4.9-1.1,7.3-1.9c2.4-0.7,4.7-1.6,7.1-2.5
		c1.6-0.7,3.1-1.3,4.7-2c-0.1,0-4.5-0.2-10.5-0.4c-4.3,0.1-8.5-0.3-12.7-0.8c-2.1-0.3-4.1-0.6-6.2-1C41,65,39,64.6,36.9,64.1
		c-2.3-0.6-3.6-2.8-3.1-5.1c0.5-2.2,2.7-3.6,5-3.1l0.1,0c1.8,0.4,3.8,0.7,5.7,1c1.9,0.3,3.9,0.5,5.8,0.7c3.9,0.4,7.7,0.6,11.5,0.4
		c3.7-0.2,7.5-0.6,10.7-1.7c1.6-0.5,3.1-1.2,4.2-2c1.4-1,2.8-2.1,4.1-3.4c2.7-2.5,5.2-5.4,7.7-8.5c2.6-3.1,5.2-6.4,8.8-9.5
		c1.8-1.5,4-3.1,6.7-4.1c1.3-0.5,2.8-0.8,4.3-0.9c0.4,0,0.8,0,1.1-0.1l0.9,0c0.6,0,1.2,0,1.8,0c1.2,0.1,5.5,2.4,6.8,2.7
		C101.6,11,62.2,0,34.6,0C5.3,0-1.5,17.1,0.2,39.8C1,37.8,2,35.9,3.2,34.2z M72.5,39.9c3.7,0,6.7,3,6.7,6.7c0,3.7-3,6.7-6.7,6.7
		c-3.7,0-6.7-3-6.7-6.7C65.8,42.9,68.8,39.9,72.5,39.9z"/>
	<path class="st0" d="M86.2,86.2c-6.7,1.8-13.2,4.4-19.7,7c-6.5,2.6-13.1,5.3-20.1,7c-3.5,0.8-7.1,1.4-10.8,1.5c-0.6,0-1.3,0-1.9,0
		c8,5.4,16.5,8.7,24.5,8.6c14.7-0.1,32.8-11,46.2-25.2C98.5,83.9,92.2,84.7,86.2,86.2z"/>
	<path class="st0" d="M111.3,38.6c-0.4-0.1-0.8,0-1.3-0.1l-0.6,0l-0.4,0c-0.5,0-1,0.1-1.6,0.3c-1.1,0.4-2.3,1.1-3.6,2.1
		C101.2,43,98.7,46,96,49c-0.8,0.9-1.5,1.7-2.3,2.6c1.2,1.5,2.9,3.1,5.3,3.5c3.6-1.5,7.3-2.7,11.1-3.5c4.4-1,8.9-1.8,13.3-2.7
		c0.1-0.8,0.1-1.5,0.1-2.3c0-1-0.1-1.9-0.2-2.9c-2.6,0.7-5.4-0.7-6.4-3.2c0,0,0,0,0,0c0,0-0.1-0.1-0.2-0.1c-0.3-0.2-0.7-0.5-1.2-0.7
		C114.5,39,113,38.7,111.3,38.6z"/>
	<path class="st0" d="M116.8,39.8c0.1,0.4,0.1,0.3,0.1,0.4C116.9,40.1,116.9,40,116.8,39.8z"/>
</g>
</svg>
