<svg id="swim_group" xmlns="http://www.w3.org/2000/svg" width="42.36mm" height="37.8mm" viewBox="0 0 120.07 107.16">
  <defs>
    <style>
      #swim_group:hover {cursor: pointer; }
      #swim {cursor: pointer; }
      #swim:hover .cls-1 {fill: #036eb8; !important; }
      .cls-1 {
        fill: #231815;
      }
    </style>
  </defs>
  <title>swim</title>
  <g id="swim">
    <path class="cls-1" d="M107.33,59.6A97.8,97.8,0,0,0,95.23,66c-7.88,4.74-15.57,10-23.67,14.63A115.14,115.14,0,0,1,59,87a55.16,55.16,0,0,1-13.73,4.1A67.93,67.93,0,0,1,31,91.38c-2.83-.22-5.62-.56-8.41-1,1.5,1.5,3,2.93,4.64,4.27,2.44.16,4.83.4,7.27.39a59.84,59.84,0,0,0,9.86-.89,96.43,96.43,0,0,0,19.36-5.74C70.05,85.9,76.27,83,82.87,80.82S96.5,77,104,77.57h0a2.71,2.71,0,0,1,1.4.52c5.72-6.9,10.2-14.36,12.64-21.61A38.36,38.36,0,0,0,107.33,59.6Z"/>
    <path class="cls-1" d="M20.23,64.42A26.88,26.88,0,0,0,23.3,58.2,36.68,36.68,0,0,0,25,51.41a36.52,36.52,0,0,0,.35-7,27,27,0,0,0-1.14-6.84,18,18,0,0,0-3-6,9.21,9.21,0,0,0-5.27-3.33,9.37,9.37,0,0,0-6.2,1.36,17.61,17.61,0,0,0-5,4.78A28.25,28.25,0,0,0,.66,43c.44,3.75,1.08,7.63,1.86,11.58A62.52,62.52,0,0,0,8.19,70.62,7.6,7.6,0,0,0,9.6,71a9.15,9.15,0,0,0,6-1.66A17.91,17.91,0,0,0,20.23,64.42Z"/>
    <path class="cls-1" d="M107.52,52.36a68.4,68.4,0,0,0-13.8,4.73c-4.48,2-8.89,4.28-13.34,6.48s-8.95,4.31-13.53,6.29a91,91,0,0,1-14.33,4.7A133.16,133.16,0,0,1,37.69,77.1c-5,.52-10,.88-15,1-2.51,0-5,0-7.53-.06-.92,0-1.83-.06-2.74-.1a79.56,79.56,0,0,0,6.73,8.82c4,.57,8.06,1,12.09,1.19a72.31,72.31,0,0,0,13.51-.37,47.67,47.67,0,0,0,6.5-1.48,64.55,64.55,0,0,0,6.34-2.36,115.46,115.46,0,0,0,12.2-6.19c8-4.56,15.67-9.72,23.69-14.49,2-1.18,4-2.36,6.12-3.46s4.18-2.19,6.37-3.14a37.29,37.29,0,0,1,6.82-2.33,24.41,24.41,0,0,1,6.18-.69c.13-.52.25-1,.36-1.57A38.56,38.56,0,0,0,107.52,52.36Z"/>
    <path class="cls-1" d="M113.75,39.32s0,0,0,0l0,0S113.74,39.31,113.75,39.32Z"/>
    <path class="cls-1" d="M3.08,33.22a20.24,20.24,0,0,1,5.39-5.61,11.83,11.83,0,0,1,7.87-2.06,12.09,12.09,0,0,1,7.19,4,20.46,20.46,0,0,1,3.92,7,33.8,33.8,0,0,1,1.17,15.42A33.74,33.74,0,0,1,23,66.36a20.5,20.5,0,0,1-5.76,5.52,13.16,13.16,0,0,1-4.45,1.69c3.27.33,6.6.54,9.89.63a140.93,140.93,0,0,0,14.68-.33,116,116,0,0,0,14.51-2.06c2.37-.58,4.77-1.08,7.08-1.85s4.62-1.56,6.89-2.42c1.52-.64,3-1.31,4.55-2-.12,0-4.36-.19-10.22-.34a91.18,91.18,0,0,1-12.32-.77q-3-.39-6-.93c-2-.37-3.94-.75-6-1.27a4.07,4.07,0,0,1,1.83-7.94l.1,0c1.72.37,3.64.72,5.49,1s3.74.53,5.61.72A82,82,0,0,0,60,56.47a38.66,38.66,0,0,0,10.35-1.62,16.07,16.07,0,0,0,4.12-2,36.14,36.14,0,0,0,4-3.27A92,92,0,0,0,86,41.35a76.06,76.06,0,0,1,8.54-9.24A21.22,21.22,0,0,1,101,28.17a15.42,15.42,0,0,1,4.19-.9l1.07-.06h.85c.57,0,1.13,0,1.71.05,1.18.07,5.37,2.37,6.62,2.6C98.7,10.69,60.42,0,33.61,0,5.16,0-1.41,16.64.24,38.63A28.51,28.51,0,0,1,3.08,33.22Zm67.34,5.52a6.54,6.54,0,1,1-6.53,6.54A6.54,6.54,0,0,1,70.42,38.74Z"/>
    <path class="cls-1" d="M83.75,83.77a175,175,0,0,0-19.18,6.76C58.21,93,51.83,95.69,45,97.33a51.39,51.39,0,0,1-10.45,1.45c-.61,0-1.23,0-1.85,0,7.76,5.28,16.07,8.43,23.78,8.36,14.3-.13,31.82-10.68,44.85-24.5C95.72,81.53,89.61,82.26,83.75,83.77Z"/>
    <path class="cls-1" d="M108.15,37.49c-.39-.05-.82,0-1.22-.07l-.62,0h-.4a5.16,5.16,0,0,0-1.55.29,11.34,11.34,0,0,0-3.51,2.06,69,69,0,0,0-7.56,7.85c-.73.84-1.47,1.68-2.23,2.52a8.53,8.53,0,0,0,5.13,3.36A70.17,70.17,0,0,1,107,50.05c4.28-1,8.6-1.72,13-2.66,0-.75.09-1.48.09-2.21a20.2,20.2,0,0,0-.19-2.81,5.27,5.27,0,0,1-6.19-3.12,0,0,0,0,0,0,0,.42.42,0,0,0-.15-.15,4.71,4.71,0,0,0-1.21-.7A13.32,13.32,0,0,0,108.15,37.49Z"/>
    <path class="cls-1" d="M113.51,38.7a2.18,2.18,0,0,0,.13.4A2.67,2.67,0,0,1,113.51,38.7Z"/>
  </g>
</svg>
