<?xml version="1.0" encoding="utf-8"?>
<!-- Generator: Adobe Illustrator 22.0.0, SVG Export Plug-In . SVG Version: 6.00 Build 0)  -->
<svg version="1.1" id="SwimWater_x5F_Group" xmlns="http://www.w3.org/2000/svg" xmlns:xlink="http://www.w3.org/1999/xlink"
	 x="0px" y="0px" viewBox="0 0 123 113.4" style="enable-background:new 0 0 123 113.4;" xml:space="preserve">
<style type="text/css">
	.st0{fill:#036EB8;}
</style>
<g id="swimWater">
	<path class="st0" d="M13.6,75.6c2.2-0.5,4.4-0.8,6.6-1.1c4.4-0.5,8.8-0.6,13.1-0.6c8.7,0.1,17.4,1.2,25.9,2.5
		c7.6,1.1,15.2,2.4,22.8,3.4c-0.3-0.8-0.6-1.7-0.8-2.5c-0.3-1.1-0.5-2.3-0.7-3.5c-6.8-0.7-13.5-1.6-20.2-2.3
		c-4.6-0.5-9.2-1-13.8-1.5c-0.7,0-1.6-0.1-2.5-0.2c-3.8-0.3-7.6-0.4-11.5-0.3c-4.6,0.1-9.2,0.4-13.8,0.9C14.4,71,10.1,71.7,6,72.7
		c0.6,1.6,1.3,3.1,2,4.6c0.2-0.1,0.4-0.2,0.7-0.3c0.6-0.2,1.1-0.4,1.7-0.6C11.4,76.1,12.5,75.9,13.6,75.6z"/>
	<path class="st0" d="M107,81.1l4.3-0.5c1.5-1.8,2.8-3.6,4.1-5.4c-0.9,0.2-1.7,0.4-2.5,0.4l-1.8,0.2l-1.8,0.1c-1.2,0.1-2.4,0-3.6,0
		c-1.2,0-2.4-0.1-3.5-0.1c-2.2-0.1-4.4-0.2-6.5-0.4c0.5,0.9,0.8,1.5,1.3,2.5l2.9,3.2c1.4,0.2,2.7,0.3,4.1,0.3
		C104.9,81.3,106,81.2,107,81.1z"/>
	<path class="st0" d="M18.4,67.9c4.7-0.4,9.4-0.6,14.1-0.6c0.2,0,0.5,0,0.7,0c-0.2-1.2-0.5-2.4-0.6-3.7l-0.2-2.1l-0.1-1l0-1.1l0-2.1
		l0.3-2.2c0.1-1,0.4-1.9,0.6-2.9c-1.9,1-3.8,2-5.8,2.8c-2.9,1.3-5.8,2.5-8.8,3.5c-1.5,0.5-3,1-4.5,1.5c-1.5,0.5-3,0.9-4.7,1.3
		c-1.8,0.4-3.6-0.7-4-2.5c-0.4-1.8,0.7-3.6,2.5-4c0,0,0.1,0,0.1,0l0.1,0c2.8-0.5,5.8-1.3,8.6-2.2c2.9-0.9,5.7-1.8,8.5-3
		c2.8-1.1,5.5-2.3,8.1-3.7c1.8-0.9,3.6-2,5.3-3.1c0.4-0.4,0.9-0.9,1.4-1.3c0.3-0.2,0.6-0.5,0.9-0.7c0.1,0,0.1-0.1,0.2-0.1
		c-0.3-1.4-0.7-2.9-0.9-4.3L39.8,34l-0.2-2.3c-0.1-0.8-0.1-1.5-0.2-2.3c0-0.8-0.1-1.5-0.1-2.3c0-3.1,0.3-6.2,0.9-9.3
		c0.3-1.5,0.7-3.1,1.1-4.6c0.2-0.8,0.5-1.5,0.8-2.3c0.1-0.4,0.3-0.8,0.5-1.1c0.1-0.2,0.2-0.4,0.3-0.6C42.9,9,43,8.8,43.2,8.5
		c1.1-2,3.6-2.7,5.5-1.6c2,1.1,2.7,3.6,1.6,5.5c0,0-0.1,0.1-0.1,0.3c-0.1,0.1-0.1,0.3-0.2,0.4c-0.1,0.3-0.2,0.5-0.4,0.8
		c-0.2,0.6-0.5,1.2-0.7,1.8c-0.4,1.2-0.8,2.5-1.1,3.7c-0.6,2.5-1,5.2-1.2,7.8c-0.1,0.7-0.1,1.3-0.1,2c0,0.7,0,1.3,0,2l0,2l0.2,2
		c0,0.7,0.1,1.4,0.2,2c0.1,0.7,0.3,1.3,0,2.1c0,0,0,0.1,0,0.1c0.9,0.4,1.7,1,2.2,1.9c1.5,2.3,0.8,5.5-1.5,7c0.1-0.1,0,0,0,0
		l-0.1,0.1c-0.1,0.1-0.2,0.2-0.3,0.3c-0.2,0.2-0.4,0.5-0.6,0.8c-0.2,0.3-0.4,0.6-0.5,0.9c-0.2,0.3-0.3,0.6-0.5,1
		c-0.5,1.3-0.8,2.8-0.8,4.3l0,1.2l0.2,1.2l0.1,0.6l0.2,0.6l0.3,1.2c0.3,0.8,0.6,1.7,0.8,2.5l0.7,1.8l1.8,3.2
		c1.8,0.2,3.7,0.4,5.5,0.6c-0.4-1.8,0.6-3.6,2.4-4.2c0.1,0,0.2-0.1,0.2-0.1l0.1,0c2.7-0.8,5.5-1.7,8.3-2.6c2.8-0.9,5.5-1.9,8.2-3
		c2.7-1.1,5.4-2.2,7.9-3.5c2.5-1.2,4.9-2.6,7.2-4.1c0,0,0-0.1,0-0.1c-0.4-1.6-0.9-3.2-1.2-4.8c-0.7-3.3-0.8-6.6-0.7-9.9
		c0.1-3.3,0.8-6.6,1.7-9.8c0.5-1.6,1.1-3.2,1.7-4.7c0.4-0.8,0.7-1.5,1.1-2.3c0.2-0.4,0.4-0.8,0.6-1.1c0.1-0.1,0.1-0.2,0.2-0.4
		C76,8.8,56.3,1.9,39.7,0.4C4.7-3,0.7,17.7,0,42.4c-0.2,8.9,1.6,18.3,4.8,27.3C9.4,68.8,13.8,68.3,18.4,67.9z M55.7,35.4
		c3.1,0,5.6,2.7,5.6,6.1s-2.5,6.1-5.6,6.1c-3.1,0-5.6-2.7-5.6-6.1S52.7,35.4,55.7,35.4z"/>
	<path class="st0" d="M80.5,62.2c-1.6,0.8-3.1,1.6-4.7,2.4c-2.7,1.3-5.5,2.5-8.3,3.7c-1.9,0.8-3,1.1-4.4,1.6
		c3.7,0.4,7.5,0.8,11.2,1.2c1.9,0.2,3.9,0.4,5.8,0.6c-0.1-1.3-0.1-2.5,0-3.9C80.3,65.8,80.3,64,80.5,62.2z"/>
	<path class="st0" d="M77.9,101.4c-3.2-0.7-6.3-1.6-9.4-2.6c-6.2-2-12.2-4.3-18.3-6.2c-6.1-2-12.3-3.6-18.5-4.4
		c-3.1-0.4-6.3-0.6-9.4-0.6c-1.6,0-3.1,0.1-4.6,0.2L15.3,88c-0.5,0.1-1.1,0-1.6-0.2c9.4,14.9,22.3,25.6,34.3,25.6
		c12.7,0,25.8-4.3,37.3-11C82.8,102.4,80.3,102,77.9,101.4z"/>
	<path class="st0" d="M98.2,22c0,0.1-0.1,0.1-0.1,0.2c-0.2,0.3-0.3,0.6-0.5,0.9c-0.3,0.6-0.6,1.2-0.9,1.8c-0.6,1.3-1.1,2.5-1.6,3.9
		c-0.9,2.6-1.5,5.4-1.7,8.2c-0.2,2.8-0.2,5.6,0.3,8.4c0.1,1.4,0.6,2.8,0.9,4.1c0,0,2.4,2.9,2.1,5.5c-0.4,2.9-2.7,5.2-3.7,7.3l0,0.1
		c-0.4,1.6-0.4,3.2-0.1,5c0.1,0.4,0.1,0.9,0.2,1.3l0.4,1.3c0.1,0.4,0.3,0.9,0.5,1.3l0.5,1.3c2.6,0.1,5.3,0.2,7.9,0.2l1.7,0l1.7-0.1
		c1.1,0,2.3-0.1,3.4-0.2l1.7-0.2l1.6-0.3c1-0.1,4.2-0.3,5.4-0.5c3.1-5.4,5-10.8,5.2-15.7C123.6,44.1,113.2,32,98.2,22z M103.7,58.1
		c-3.1,0-6-3.2-6-6.6c0-3.4,2.7-5.9,5.8-5.9c3.1,0,5.8,3,5.8,6.4C109.2,55.4,106.8,58.1,103.7,58.1z"/>
	<path class="st0" d="M97.4,84.6c-4.4-0.3-8.6-1-12.9-1.5c-8.6-1.2-17.1-2.6-25.6-3.8c-4.3-0.6-8.5-1.1-12.8-1.5
		c-4.3-0.4-8.5-0.5-12.8-0.5c-4.3,0.1-8.5,0.3-12.7,0.9c-2.1,0.3-4.1,0.7-6.1,1.2c-1,0.3-2,0.6-2.9,0.9c-0.5,0.2-0.9,0.4-1.4,0.6
		l-0.4,0.2c0.9,1.7,1.8,3.4,2.8,5c1.3-1.9,3-1.5,4.6-1.8c1.7-0.2,3.3-0.3,5-0.3c3.3,0,6.6,0.4,9.9,1c6.5,1.2,12.7,3.2,18.8,5.2
		c6.1,2,12.2,4.3,18.2,6.3c3,1,6.1,1.9,9.2,2.6c2.8,0.6,7.8,1,11,0.9c6.8-4.4,13-9.5,18.2-15C104.1,85.1,100.7,84.8,97.4,84.6z"/>
</g>
</svg>
