<svg id="taegundo_Group" xmlns="http://www.w3.org/2000/svg" width="41.37mm" height="37.48mm" viewBox="0 0 117.27 106.25">
  <defs>
    <style>
      #taegundo_Group:hover {cursor: pointer; }
      #taegundo {cursor: pointer; }
      #taegundo:hover .cls-1 {fill: #036eb8; !important; }
      .cls-1 {
        fill: #231815;
      }
    </style>
  </defs>
  <title>taegondo</title>
  <g id="taegundo">
    <path class="cls-1" d="M38.78,98.53c2.88,0,5.75,0,8.63,0,5.75-.08,11.5-.28,17.22-.66s9.25-.94,17.12-1.63c7.7-.67,16.5-4,18.42-3.85l-.9-.72c-.37-.33-.75-.65-1.11-1q-1.08-1-2.07-2.1-.82-.91-1.59-1.92c-1.22.47-2.45.9-3.68,1.31l-3.44,1a34.93,34.93,0,0,1-3.44.92,119.38,119.38,0,0,1-14,2.38c-1.17.13-2.34.27-3.51.38L63,92.89c-2.34.22-4.69.3-7,.4-3,.12-5.93.16-8.9.15a3.61,3.61,0,0,1-4.53,0h-.66c-2.34-.08-4.69-.12-7-.25s-4.69-.28-7-.48-4.67-.41-7-.65l-3.5-.4-.73-.09a62.2,62.2,0,0,0,13.19,7.53l.41-.12C31.6,98.44,38.78,98.53,38.78,98.53Z"/>
    <path class="cls-1" d="M50.75,53.85A24.4,24.4,0,0,1,48,48.75c-.37-.85-.71-1.7-1-2.53A26.14,26.14,0,0,0,44,47.65a26,26,0,0,0-4.41,4.27A31.19,31.19,0,0,0,36,57.32a27.36,27.36,0,0,0-1.81,4.42h.28c2.14.06,4.28.21,6.45.44A47.94,47.94,0,0,1,47.6,63.3,21.07,21.07,0,0,1,55,66.51a8,8,0,0,1,1,.89,7.76,7.76,0,0,1,1,1.13,7.68,7.68,0,0,1,.8,1.38c.06.12.12.24.17.37s.06.18.1.27l.16.52a11.88,11.88,0,0,1,.61,4.31,14.78,14.78,0,0,1-.22,2.12,14,14,0,0,1-.56,2A18.53,18.53,0,0,1,56.36,83a25.93,25.93,0,0,1-2.07,3,33.9,33.9,0,0,1-2.21,2.64c-.79.82-1.55,1.64-2.37,2.41l-.35.33c2.17,0,4.33,0,6.49,0,2.33-.07,4.65-.11,7-.3l3.47-.26c1.16-.12,2.31-.28,3.46-.41s2.3-.26,3.45-.44l3.42-.6a61.56,61.56,0,0,0,6.74-1.56,31.34,31.34,0,0,0,3.28-1.06c1.08-.38,2.17-.73,3.23-1.18s1.95-.87,2.92-1.33c-.08-.13-.17-.26-.25-.4a21.27,21.27,0,0,1-3.09-12.17c0-.54.14-1.07.21-1.61s.15-1.14.26-1.54c.2-.89.39-1.79.63-2.67.43-1.79,1-3.55,1.52-5.31,0-.07.05-.13.07-.19-.91,0-1.79.08-2.66.14s-1.84.18-2.73.32-1.76.3-2.59.51a20.84,20.84,0,0,0-2.42.82,11.77,11.77,0,0,0-2.19,1.09,9.5,9.5,0,0,0-3.25,3.33A13.73,13.73,0,0,0,74.78,71a35,35,0,0,0-.46,5.07c-.06.86,0,1.74,0,2.61l0,2.5,0,.69a3.83,3.83,0,0,1-7.59.8c-.14-.71-.21-1.21-.29-1.79s-.12-1.11-.18-1.67c-.08-1.12-.14-2.24-.11-3.36A30.87,30.87,0,0,1,67,69a22.57,22.57,0,0,1,2.72-6.74,18.11,18.11,0,0,1,1.07-1.57A15.28,15.28,0,0,1,72,59.25a21.07,21.07,0,0,1,2.74-2.53A34.66,34.66,0,0,1,87.11,51c2.06-.56,4.08-1,5.93-1.46l.08,0c.24-.66,2.21-3.05.88-6.15a12.55,12.55,0,0,0-3.07-4.49c-4-5.11-6.41-2.74-6.41-2.74-.84,1.24-6.1,4.91-7.38,5.63a23.45,23.45,0,0,1-4.47,1.88,6.45,6.45,0,0,1,0,1.33,10.66,10.66,0,0,1-.81,2.79,22.54,22.54,0,0,1-3.09,5,24.53,24.53,0,0,1-4.69,4.47A10,10,0,0,1,60.51,59a7.15,7.15,0,0,1-4.45-.44,10.44,10.44,0,0,1-3.18-2.19A20.62,20.62,0,0,1,50.75,53.85Z"/>
    <path class="cls-1" d="M114.68,63.37a16.36,16.36,0,0,0-3.47-.73c-1.28-.16-2.58-.28-3.9-.37-1.84-.12-3.7-.18-5.56-.21-.21.47-.43.95-.63,1.44-.31.79-.62,1.58-.92,2.39a13.7,13.7,0,0,1,4.56,1.25A8.36,8.36,0,0,1,108.11,70a7.06,7.06,0,0,1,1,5A9.06,9.06,0,0,1,107,79.2a17.82,17.82,0,0,1-3,2.71c-.74.51-1.5,1-2.26,1.4l.09.12c.45.6,1,1.18,1.46,1.74.25.28.52.54.78.81l.73.69.22.21c4.89-6.92,8.25-15.4,10.16-25Z"/>
    <path class="cls-1" d="M9.45,83.7l.44-.32c.34-.25.86-.62,1.3-1s.9-.72,1.34-1.09l1.29-1.16L15.05,79a30.69,30.69,0,0,0,4.11-5.22,13.55,13.55,0,0,0,.77-1.39A9,9,0,0,0,20.6,71c.18-.49.42-.94.59-1.41s.29-1,.46-1.42A14.24,14.24,0,0,0,22,66.69l.17-.7a6.06,6.06,0,0,0,.09-.73l.19-1.44c.08-.74.13-1.5.25-2.23a44.25,44.25,0,0,1,2-8.76c.25-.7.5-1.4.79-2.09s.64-1.35,1-2a31.53,31.53,0,0,1,2.31-3.82,34.83,34.83,0,0,1,6-6.81c1.64-1.54,7.71-4.46,10.87-4.22,6.4-.4,6,6.79,21.33,5.79,2.21-.14,6.35-2.54,10.33-5.89,2.3-1.94,6.68-8.91,7-9.35,1.61-2,4.52-1.49,5.59-1.35,3.28.56,9.09,6.11,10.68,8.17A26.74,26.74,0,0,1,107,41.82a35.67,35.67,0,0,1,.41,3.65,20.76,20.76,0,0,1,0,4.66,13.54,13.54,0,0,1-.45,2.25,6.23,6.23,0,0,1-1.58,4.72,9.51,9.51,0,0,1-1.78,1.33l-.06.13c1.34,0,2.67,0,4,.06s2.75.12,4.15.25a21.2,21.2,0,0,1,4,.72C120.3,32.8,116.14-.32,86.79,0,49.23.42,0,33.44,0,59.91A37.16,37.16,0,0,0,8.86,84.27,3.53,3.53,0,0,1,9.45,83.7ZM69.86,18.84a6.09,6.09,0,0,1,8.6-.24,6.09,6.09,0,0,1,1,8.55,6.09,6.09,0,0,1-8.6.24A6.09,6.09,0,0,1,69.86,18.84ZM57.47,24.29a6.1,6.1,0,0,1,6.33,5.83,6.35,6.35,0,0,1-12.66,0A6.1,6.1,0,0,1,57.47,24.29Z"/>
    <path class="cls-1" d="M27,79.68a34,34,0,0,1-6.47,5.9l-1.78,1.2c-.61.37-1.22.74-1.85,1.08s-1.26.67-1.91,1l-.53.25c1.27.06,2.54.18,3.12.24l3.47.38c2.31.23,4.63.46,7,.63,4.41.35,8.82.59,13.23.8a3.64,3.64,0,0,1,1-3l.72-.74.86-.89.91-1c.61-.65,1.17-1.34,1.73-2a23.26,23.26,0,0,0,1.5-2,19.31,19.31,0,0,0,1.24-2,8.24,8.24,0,0,0,1.14-3.88,4.6,4.6,0,0,0-.35-1.79l-.09-.22,0-.09h0s0,0,0,0,0,0-.08-.06a.43.43,0,0,0-.17-.12A8.26,8.26,0,0,0,48,72.65a22.08,22.08,0,0,0-2.31-.51,38,38,0,0,0-5.36-.43c-1.86,0-3.76,0-5.66.14-1,.07-2,.15-3,.24A28,28,0,0,1,27,79.68Z"/>
    <path class="cls-1" d="M63.39,49.43a38.28,38.28,0,0,0,2.45-4.54,42.46,42.46,0,0,1-4.78.07c-1.33-.06-2.65-.17-4-.35-1.09-.14-2.12-.3-3.24-.54,1,1.82,3.26,5.87,3.26,5.87C59.39,54.08,62.45,50.69,63.39,49.43Z"/>
    <path class="cls-1" d="M100.26,92.44l-1,1.22c.38-.37.75-.75,1.12-1.13Z"/>
    <path class="cls-1" d="M94.94,96c-1.41.39-2.83.71-4.25,1.07s-2.86.57-4.29.87l-2.14.41-2.16.32c-5.75.89-11.53,1.39-17.31,1.75s-11.58.46-17.36.47c-2.9,0-5.79,0-8.68-.08l-4.34-.11h-.56A98.8,98.8,0,0,0,58,105.9c17.22,1.64,30.45-2.63,40-11.06A17.22,17.22,0,0,1,94.94,96Z"/>
    <path class="cls-1" d="M103.66,76.55a5,5,0,0,0,1-2.21,3.06,3.06,0,0,0-.52-1.86,7.07,7.07,0,0,0-1.76-2,7.71,7.71,0,0,0-1.27-.78c-.46-.23-.94-.42-1.4-.66l-.46-.25c-.17.53-.33,1.06-.5,1.59-.06.21-.12.4-.14.52l-.1.44c-.06.29-.15.57-.21.87a12.54,12.54,0,0,0,1.31,7.46c.07.15.15.29.22.43.62-.44,1.22-.9,1.78-1.38A14.39,14.39,0,0,0,103.66,76.55Z"/>
  </g>
</svg>
